<svg width="1272" height="397" viewBox="0 0 1272 397" fill="none" xmlns="http://www.w3.org/2000/svg">
<path d="M472.412 255.208C483.747 256.779 490.174 255.613 501.492 255.346C504.185 259.248 508.016 267.838 510.36 272.495C519.51 290.674 527.968 312.455 538.12 329.908C548.088 313.141 554.929 292.834 564.396 275.641C566.27 272.239 572.864 256.29 576.305 256.044C585.255 255.404 594.408 256.252 603.558 255.795C604.712 264.603 604.084 289.276 604.087 299.785L604.047 386.754C596.743 387.165 587.661 386.868 580.228 386.816C579.747 370.378 580.033 352.059 579.983 335.483L580.127 295.479C572.755 310.518 556.471 340.172 550.89 355.095L525.688 355.168C520.966 348.302 518.674 340.099 514.651 333.42C507.988 322.357 502.756 306.251 495.93 295.902C495.431 304.12 495.844 317.152 495.845 325.78L495.738 386.831C487.632 386.941 479.524 386.923 471.42 386.775C470.476 376.567 471.178 350.789 471.172 339.099L471.199 287.138C471.215 280.184 470.865 261.087 472.412 255.208Z" fill="#FEFEFE"/>
<path d="M711.205 60.9826C726.072 59.2573 740.617 67.7367 741.888 83.013C743.462 101.933 742.115 122.645 742.612 141.748C742.757 147.242 742.681 155.063 741.939 160.313L714.931 160.303C714.956 148.942 716.687 92.526 713.182 86.689C711.702 84.2209 709.21 82.6517 706.453 81.9964C699.184 80.2692 689.063 83.5845 682.889 87.3348C682.316 111.42 683.247 136.132 682.675 160.319L655.397 160.402C654.767 145.045 655.177 127.386 655.183 111.862C655.271 104.96 656.014 94.2589 653.666 87.8762C649.386 76.2627 630.901 83.4202 622.914 86.9628C622.624 111.249 622.857 136.025 622.977 160.337C613.482 160.42 603.986 160.378 594.492 160.209C595.738 131.224 594.771 93.5665 594.769 64.1746C597.244 64.1211 599.994 64.0374 602.445 63.9341C613.844 63.4545 617.695 60.8416 620.424 73.2545C632.418 65.2736 641.506 60.6565 656.599 61.1337C668.627 61.5139 672.17 65.2522 679.817 73.3225C688.427 64.9507 699.958 62.5544 711.205 60.9826Z" fill="#FEFEFE"/>
<path d="M505.037 28.9469C510.584 28.6669 532.366 27.9389 533.506 29.7369C539.568 39.2993 554.605 86.6002 558.018 96.3058C566.211 119.605 573.81 138.952 580.925 160.273C571.375 160.621 559.837 160.319 550.158 160.288L540.887 130.905L533.146 130.731C520.798 130.737 508.005 130.587 495.705 131.032C492.971 139.828 488.777 151.615 486.964 160.295C477.266 160.393 467.567 160.368 457.869 160.219C457.932 159.813 458.004 159.408 458.085 159.005C459.032 154.208 462.54 145.411 464.288 140.481C468.595 128.156 472.999 115.865 477.498 103.608C486.057 79.6523 493.752 54.7327 503.077 30.9869C503.612 29.6248 503.869 29.7326 505.037 28.9469ZM501.795 110.285L519.267 110.296L534.682 110.231C533.402 105.43 518.675 56.8848 517.956 56.0904C512.839 74.2843 507.159 92.1785 501.795 110.285Z" fill="#FEFEFE"/>
<path d="M666.788 288.204C680.818 287.004 693.129 287.449 704.993 296.052C714.899 303.242 721.414 314.573 722.987 326.721C726.883 356.85 717.744 383.874 684.462 389.162C652.331 391.941 631.901 378.903 628.049 345.759C625.022 319.763 638.189 290.917 666.788 288.204ZM679.338 368.924C685.702 366.527 689.755 363.958 692.455 357.366C696.464 347.582 696.691 331.257 693.103 321.359C689.491 311.392 681.711 308.183 671.943 308.963C665.92 311.122 661.697 313.507 659.028 319.685C654.855 329.334 654.817 345.687 658.166 355.548C661.627 365.747 669.23 369.409 679.338 368.924Z" fill="#FEFEFE"/>
<path d="M1003.46 60.9719C1007.05 60.0793 1009.73 61.0449 1013.19 61.325C1037.53 63.676 1052.12 81.2782 1053.88 105.108C1056.14 135.744 1044.17 160.495 1010.67 162.887C984.305 164.407 962.66 151.94 959.406 123.55C957.694 108.623 958.859 89.451 968.696 77.3692C978.213 65.684 989.032 62.4876 1003.46 60.9719ZM994.571 138.782C1001.24 142.417 1002.97 142.973 1010.43 142.208C1016.39 139.982 1020.81 137.575 1023.16 131.316C1029.76 113.768 1029.21 79.7983 1003.07 81.6666C997.208 83.5814 992.815 86.0142 990.303 91.9412C983.839 107.228 985.237 125.37 994.571 138.782Z" fill="#FEFEFE"/>
<path d="M803.694 61.1006C813.947 59.712 829.776 62.1115 837.341 69.7934C848.721 81.3571 846.039 99.2387 846.039 114.5L846.241 160.349C838.82 160.297 831.4 160.285 823.985 160.314C823.387 157.645 822.909 154.314 822.443 151.572C804.191 165.157 783.245 170.22 767.044 150.65C763.368 143.615 761.889 138.142 762.959 130.022C763.885 122.741 767.648 116.123 773.439 111.615C788.645 99.962 804.084 103.625 820.58 105.769C821.103 97.4303 821.852 83.0447 810.686 81.5737C797.217 79.7998 782.515 83.231 769.612 86.9706C769.461 80.9165 769.625 75.0821 769.776 69.0279C779.204 63.2552 792.906 62.1209 803.694 61.1006ZM808.679 143.719C823.136 137.721 821.367 135.532 820.329 120.584C811.888 119.153 808.213 118.967 799.653 119.489C795.147 121.104 792.276 122.355 790.08 126.975C788.544 130.204 788.349 133.913 789.539 137.287C792.453 145.352 801.661 145.621 808.679 143.719Z" fill="#FEFEFE"/>
<path d="M192.306 64.1614C215.478 62.3436 238.73 66.4854 259.85 76.1916C289.733 89.6803 316.729 118.769 327.622 149.673C329.2 154.149 334.868 169.674 332.992 173.814C329.948 176.054 320.666 176.408 316.651 176.757C315.518 157.567 302.851 135.14 290.732 120.782C273.455 100.312 243.922 83.9421 217.185 81.4923C183.65 79.1866 160.378 84.7214 133.151 105.145C110.791 121.917 94.1629 148.961 90.0913 176.559C83.5154 176.704 79.9996 175.731 73.7793 174.056C74.3011 164.941 76.7362 155.657 80.0374 147.158C97.8543 101.285 143.336 67.5819 192.306 64.1614Z" fill="white"/>
<path d="M801.648 287.76C809.969 285.921 820.719 288.182 826.799 294.457C830.292 298.072 832.684 302.601 833.703 307.519C835.094 314.034 834.534 330.086 834.54 337.476C834.647 353.935 834.622 370.394 834.465 386.853C825.905 387.093 816.087 386.855 807.426 386.845C807.049 373.824 809.27 323.101 805.507 314.913C804.367 312.439 801.806 310.648 799.288 309.747C790.942 306.761 780.501 311.139 773.011 314.712C772.847 338.76 772.904 362.809 773.2 386.856C764.08 386.902 754.96 386.899 745.834 386.845C744.795 373.925 745.292 355.913 745.28 342.477C745.261 326.026 744.751 306.593 746.022 290.512L767.17 290.31C768.958 294.517 769.417 296.528 770.141 301.034C781.835 293.241 787.399 289.627 801.648 287.76Z" fill="#FEFEFE"/>
<path d="M1133.47 60.9719C1134.47 60.7913 1135.56 60.6163 1136.58 60.6182C1169.32 60.6729 1165.25 88.1953 1165.28 111.047L1165.33 160.293L1138.38 160.259C1137 139.213 1139.11 117.166 1137.83 96.2134C1136.59 75.8328 1117.33 80.2824 1104.22 87.9763C1101.57 91.1846 1102.85 150.864 1102.64 160.34L1075.56 160.331L1075.65 64.174C1082.57 63.751 1090.7 63.9165 1097.73 63.9027C1099.2 66.9751 1100.05 70.7543 1100.93 74.0798C1113.53 65.8049 1118.45 63.2959 1133.47 60.9719Z" fill="#FEFEFE"/>
<path d="M89.2223 221.112C89.4703 221.194 90.8172 222.153 90.8657 222.323C94.6439 235.742 98.7683 246.018 106.273 257.834C122.508 283.79 148.44 302.183 178.302 308.923C207.862 315.62 238.872 310.202 264.41 293.879C290.498 277.553 309.016 251.516 315.878 221.514C320.894 222.765 328.57 223.485 331.256 227.368C332.79 231.832 328.18 240.968 326.23 245.749C323.131 253.14 319.571 260.33 315.573 267.275C312.22 273.036 307.988 277.816 303.708 282.804C285.572 303.716 262.597 318.151 235.603 324.82C172.77 340.345 107.095 308.176 81.5575 248.559C78.3017 240.958 76.5696 233.903 74.4951 225.977C79.8198 223.777 83.9329 223.687 89.2223 221.112Z" fill="white"/>
<path d="M866.703 64.1224C891.853 63.2506 918.961 64.2609 944.464 63.807C944.697 70.286 944.962 76.3515 944.659 82.8488C941.789 87.6729 937.019 92.0628 933.469 96.4677C921.674 111.109 905.7 125.926 894.371 140.581C901.257 140.777 942.671 139.309 945.289 141.288C946.195 144.656 946.157 155.775 946.271 159.887C943.709 160.593 924.531 160.322 920.975 160.317L864.569 160.387C864.531 153.984 864.619 147.581 864.833 141.181C866.155 138.817 877.956 125.91 880.612 122.902L915.065 83.5726C902.282 82.8211 880.027 83.6488 866.526 83.8181C866.47 77.2107 866.357 70.7304 866.703 64.1224Z" fill="#FEFEFE"/>
<path d="M873.11 245.281C876.874 244.899 881.381 245.711 884.597 247.77C888.279 250.089 890.847 253.813 891.715 258.077C893.648 267.404 888.386 273.558 879.43 275.293C862.952 276.646 859.333 269.509 860.478 254.471C864.179 249.1 866.892 247.071 873.11 245.281Z" fill="#FEFEFE"/>
<path d="M148.559 42.2421C148.453 32.2829 146.27 12.6609 153.127 5.79732C159.333 -0.414475 163.846 0.317772 172.181 0.236761L215.389 0.241797C224.587 0.261688 239.891 -1.69448 246.086 5.19745C253.274 13.1945 250.335 31.4037 251.005 42.0727C262.12 46.327 268.078 48.4996 278.589 54.0571C285.314 46.3179 297.755 31.0707 309.11 30.2837C312.811 30.0271 318.169 34.5297 320.837 36.7714C334.846 49.451 347.657 63.8458 361.271 76.8459C381.622 96.2798 357.404 107.033 346.248 121.139C349.88 129.829 354.064 139.259 356.64 148.252C361.556 148.277 370.204 148.547 374.708 148.204C406.743 145.768 398.673 172.8 399.768 194.097C400.317 204.769 397.715 208.622 386.938 208.647C348.169 208.737 309.331 209.159 270.559 208.78C267.883 208.753 261.131 208.521 259.028 206.312C248.024 189.676 240.739 161.981 230.528 144.877C224.454 163.077 216.632 180.324 210.465 198.491C207.596 206.942 203.735 215.634 200.47 223.994L187.612 256.756C185.438 262.262 183.515 268.038 180.954 273.368C180.144 275.051 179.393 276.866 177.629 277.716C175.352 278.812 172.043 278.904 169.695 277.983C161.986 274.963 140.155 220.323 132.273 208.808C109.681 208.623 87.089 208.63 64.4975 208.827C49.5997 208.839 31.6416 208.335 16.9472 208.842C16.928 216.835 17.0805 225.587 16.8396 233.515C24.4407 233.41 56.44 231.289 60.6576 235.445C62.2701 237.033 63.4653 239.17 64.4352 241.197C67.0176 246.595 68.5578 252.482 70.8412 258.011C73.1567 263.619 76.3119 269.09 78.1994 274.84C78.9226 277.044 79.3921 279.378 79.3796 281.704C79.3494 287.451 59.6801 302.909 55.5296 308.817C68.4268 322.429 85.9397 337.962 98.4886 351.722C103.944 345.934 110.188 340.568 115.399 334.594C116.924 332.846 124.332 325.816 125.913 326.477C134.17 329.927 166.427 341.975 171.755 346.383C174.008 353.042 172.569 373.603 173.013 382.303C188.918 382.467 219.028 383.368 233.91 382.066C233.858 371.864 233.507 361.581 233.664 351.43C233.725 347.446 238.027 343.764 241.455 342.307C247.826 339.6 254.566 337.815 260.976 335.198C267.016 332.696 274.421 327.795 280.338 325.55C287.59 330.201 301.628 345.134 307.681 351.957C320.831 339.571 333.282 326.28 346.264 313.695C347.738 312.266 349.042 310.949 350.268 309.291C343.86 298.503 332.485 292.738 326.732 282.182C324.918 278.853 333.987 261.497 335.616 257.991C338.932 250.85 341.101 240.821 346.306 235.035C351.427 232.302 375.887 233.212 382.344 233.746L383.393 227.744C387.694 227.526 394.961 226.426 398.563 228.771C399.59 229.44 399.857 231.196 399.877 232.308C400.142 246.675 389.657 251.157 376.874 250.931C370.906 250.825 362.778 250.632 356.829 251.209C352.971 259.775 349.859 269.275 345.951 278.136C352.505 287.302 362.686 293.16 367.438 303.226C369.177 307.331 368.202 314.249 365.31 317.535C351.809 332.873 336.763 346.933 322.258 361.289C317.916 365.586 312.419 370.66 306.131 369.218C295.73 366.832 285.199 353.331 278.426 345.718C269.667 349.857 258.116 353.743 251.017 357.214C250.282 371.988 253.75 386.84 244.414 396.874H163.149C159.709 393.265 156.978 390.474 156.555 385.378C155.814 376.445 156.397 366.744 156.203 357.746L156.025 357.634C153.159 355.879 131.198 346.636 128.781 347.265C116.914 350.349 109.469 377.568 90.9151 366.933C86.5156 364.412 49.4792 327.059 44.6798 321.548C42.5653 319.12 39.7908 316.033 38.9291 312.858C37.6785 308.25 38.2815 303.879 40.7345 299.787C44.4667 293.559 60.9824 282.184 59.4548 275.776C57.476 267.476 51.7707 259.774 49.7806 250.979C2.97182 249.615 -1.36274 257.927 0.276565 206.096C0.419941 201.563 0.755219 196.185 3.93033 192.782C6.57938 191.928 10.7003 191.236 13.4448 191.239C36.1483 191.269 60.961 190.965 83.4234 191.191C94.3447 191.301 133.389 190.335 141.572 192.387C146.073 195.895 167.659 241.227 171.832 249.169C176.446 241.173 179.981 228.223 183.618 218.952C193.153 195.185 202.514 171.348 211.699 147.443C214.965 138.833 220.427 121.911 225.589 115.132L231.499 112.788C232.892 113.682 236.123 115.707 236.884 117.105C249.643 140.54 258.021 167.337 270.114 191.134C282.936 191.383 296.537 191.53 309.352 191.235C333.343 190.683 358.228 192.1 382.104 191.06C382.568 184.253 382.537 172.659 382.009 165.866C375.618 165.948 351.061 167.163 346.969 165.186C342.295 160.291 338.737 148.21 336.437 142.245C334.6 137.478 325.642 120.979 327.06 117.686C329.128 112.886 346.649 97.4663 350.8 91.0956C347.459 86.7586 313.063 52.1915 308.774 49.2417C303.674 49.9756 291.251 68.2979 280.216 73.9227L280.003 74.0285C267.91 68.9311 256.89 61.873 244.036 58.5885C239.917 57.5361 235.038 55.4922 234.416 50.9073C232.923 39.9035 234.055 28.0026 233.854 16.9079C210.936 18.1449 187.873 16.332 166.075 17.1771C166.043 27.5253 166.31 38.4222 166.176 48.8633C163.689 59.2406 148.348 59.9891 139.484 64.2732C133.144 67.338 126.364 72.0992 119.19 73.27C113.113 74.262 94.4536 47.339 91.2657 49.2194C85.7006 52.5017 76.473 64.044 71.1993 68.7461C64.2231 76.4469 53.9279 83.921 48.3326 91.5331C55.3377 99.7022 71.0313 111.928 73.827 119.504C71.1112 127.026 66.5783 134.65 63.33 142.238C61.4141 146.713 56.5722 163.301 52.47 165.29C46.8664 168.006 21.4403 163.963 17.2542 167.075C16.7319 169.531 17.0248 170.416 15.3487 171.718C10.3673 172.253 5.82417 171.594 1.10246 171.96C-1.00621 142.86 21.0012 148.087 42.4085 148.439C46.1485 137.499 48.2989 132.098 53.4574 121.85C46.2946 111.178 28.3192 102.584 31.0289 88.4846C31.5071 86.0322 32.5331 83.719 34.0304 81.7186C45.7217 66.339 68.6597 47.5993 82.6253 33.4211C95.093 20.7629 113.641 47.9408 121.493 54.0029C129.124 49.1502 139.934 45.1334 148.559 42.2421Z" fill="#FEFEFE"/>
<path d="M1086.27 292.924C1111.4 281.554 1143.21 287.212 1154.58 314.47C1162.95 334.547 1159.54 366.846 1141.53 380.688C1120.98 392.504 1103.92 393.497 1082.54 382.595C1079.18 380.123 1077.64 378.936 1074.75 375.971C1062.31 361.222 1060.56 338.499 1064.99 320.249C1067.89 308.346 1075.67 298.894 1086.27 292.924ZM1113.97 368.819C1119.77 366.813 1124.65 364.177 1127.15 358.173C1131.4 347.956 1131.82 331.704 1128.35 321.254C1125.08 311.381 1116.61 308.291 1107.11 308.895C1101.15 310.84 1097.58 312.635 1094.83 318.585C1090.02 328.991 1090.31 344.744 1093.47 355.66C1096.42 365.824 1104.1 369.618 1113.97 368.819Z" fill="#FEFEFE"/>
<path d="M1216.68 293.313C1236.09 285.576 1266.29 281.9 1269.34 310.008C1269.69 320.63 1268.75 349.681 1271.14 357.851L1271.21 361.498C1269.11 371.629 1270.79 378.697 1269.57 386.984C1261.94 386.958 1255.63 386.868 1248 387.736L1245.31 387.789L1243.2 386.952C1241.9 385.341 1242.24 383.093 1242.27 380.952C1242.31 380.466 1242.35 379.978 1242.38 379.489C1242.95 369.564 1242.49 359.295 1242.5 349.329C1242.52 340.092 1243.27 330.251 1242.11 321.122C1241.74 318.252 1241.26 315.236 1239.24 313.031C1236.57 310.132 1232.68 308.923 1228.84 308.787C1224.16 308.621 1212.58 311.133 1209.16 314.561C1205.86 317.877 1207.41 377.277 1207.27 386.782C1198.48 387.079 1188.84 386.877 1179.98 386.862L1180 290.488C1187.55 290.419 1195.1 290.39 1202.64 290.4C1203.74 293.426 1204.63 297.552 1205.41 300.753C1209.15 298.251 1212.91 295.771 1216.68 293.313Z" fill="#FEFEFE"/>
<path d="M921.171 290.455C921.555 286.345 923.525 267.385 926.055 265.141C928.774 264.385 943.936 264.442 946.428 265.234C948.449 267.844 948.298 285.492 948.342 289.94C956.323 290.768 966.053 290.349 974.147 290.009C973.977 296.488 973.555 304.815 974.002 311.126C965.291 310.601 956.562 310.53 947.845 310.914C947.895 320.278 945.453 359.214 950.608 364.505C952.936 366.896 957.172 367.432 960.344 367.375C965.09 367.291 969.584 366.298 974.166 365.151L974.38 385.09C960.03 388.76 939.197 392.381 927.408 380.832C922.127 375.658 921.813 368.851 919.893 362.175C920.101 345.168 919.792 327.604 920.195 310.713L905.53 310.842C905.537 305.592 905.36 298.194 905.87 293.154C911.491 292.483 915.752 292.121 921.171 290.455Z" fill="#FEFEFE"/>
<path d="M1017.16 305.539C1027.49 294.531 1031.99 289.9 1048.46 288.978C1050.04 288.889 1051.18 289.085 1052.45 290.068C1054.43 294.76 1053.37 309.364 1053.16 315.209C1040.2 313.98 1031.64 313.797 1019.07 318.615L1019.31 386.263C1017.64 387.442 993.243 387.582 991.134 385.686L991.002 384.802C991.858 354.699 991.172 320.88 991.185 290.574C1014.29 290.132 1012.1 283.65 1017.16 305.539Z" fill="#FEFEFE"/>
<path d="M883.275 289.434L885.459 289.618C886.649 289.981 889.002 290.421 889.084 291.319C890.67 308.419 889.393 336.805 889.871 353.091C889.418 363.667 889.789 376.161 889.814 386.914L886.749 387.468C878.982 386.753 870.133 386.882 862.253 386.821C861.781 372.912 862.045 357.799 862.045 343.813C861.932 326.029 862.008 308.244 862.272 290.461C869.007 290.444 876.685 290.546 883.275 289.434Z" fill="#FEFEFE"/>
</svg>
