<svg width="2219" height="401" viewBox="0 0 2219 401" fill="none" xmlns="http://www.w3.org/2000/svg">
<path d="M351.099 0.101597C358.749 0.0820951 382.572 -0.485296 388.701 1.28714C412.055 8.04204 403.774 53.2564 404.69 74.1084C414.693 73.2834 426.634 72.938 436.67 73.583L436.682 286.515C436.683 323.667 437.325 363.048 436.528 399.958L175.655 399.993L98.7129 400.04C84.709 400.053 66.3408 401.691 53.1318 397.602C29.8891 390.405 43.3495 355.892 37.752 346.45C25.0129 353.864 12.437 361.555 0.0332031 369.516L0 42.6475C23.4002 28.3185 46.8876 14.1319 70.46 0.0879256L289.164 0.20316L351.099 0.101597ZM188.9 72.9864L188.79 254.106L233.973 254.051L233.908 180.894C253.027 180.891 272.527 180.676 291.612 180.902C293.924 178.625 293.468 176.547 293.508 172.673C293.513 164.725 293.478 156.777 293.403 148.829C273.573 148.87 253.744 148.803 233.915 148.63L233.971 105.855L304.099 105.769L304.184 72.9717L188.9 72.9864Z" fill="white"/>
<path d="M404.69 74.1085C414.693 73.2835 426.633 72.9385 436.669 73.5835L436.681 286.515C436.682 323.668 437.325 363.049 436.528 399.959L175.655 399.994L98.7119 400.041C84.7079 400.054 66.3399 401.692 53.1309 397.602C29.8881 390.405 43.3486 355.893 37.751 346.451C48.6999 340.291 59.7939 333.368 70.5739 326.847C82.3199 327.496 98.6959 327.014 110.696 327.017L186.799 327.026L404.778 326.878L404.69 74.1085Z" fill="#CACACA"/>
<path d="M0 42.6479C23.4002 28.3189 46.8872 14.1329 70.4596 0.0888672C69.4636 94.9779 71.1186 190.133 70.4636 285.051C70.3676 298.906 70.2786 313.014 70.5746 326.847C59.7946 333.368 48.7006 340.291 37.7517 346.451C25.0126 353.865 12.4367 361.555 0.0328979 369.516L0 42.6479Z" fill="#CACACA"/>
<path d="M1009.36 94.624C1029.52 93.938 1047.98 96.608 1064.65 109.752C1092.79 131.864 1095.08 180.81 1073.16 207.901C1059.49 224.794 1041.54 229.689 1021.03 231.734C1001.39 232.358 982.205 228.93 966.485 215.789C939.006 192.843 936.738 144.22 959.405 117.272C972.335 101.903 990.095 96.239 1009.36 94.624ZM1021.32 202.715C1043.35 199.678 1058.67 179.26 1055.44 157.26C1052.2 135.259 1031.65 120.118 1009.67 123.551C987.985 126.941 973.075 147.18 976.275 168.902C979.465 190.625 999.575 205.714 1021.32 202.715Z" fill="#FEFEFE"/>
<path d="M1106.58 98.0406C1131.99 97.8516 1188.82 93.0556 1208.89 108.958C1232.24 127.463 1230.19 192.893 1211.85 215.265C1192.19 233.903 1134.29 228.404 1106.65 228.362L1106.58 98.0406ZM1138.18 200.805C1153.54 200.871 1173.31 203.487 1184.87 194.049C1193.9 180.408 1197.98 140.044 1182.32 129.5C1173.8 123.763 1149.31 125.616 1138.24 125.773L1138.18 200.805Z" fill="#FEFEFE"/>
<path d="M1419.67 94.5898C1451.78 92.5738 1479.2 104.081 1484.68 138.618L1453.21 138.811C1446.27 122.094 1434.31 123.615 1418.68 122.915C1405.15 122.309 1387.28 136.589 1402.89 144.139C1429.38 156.953 1482.6 139.956 1486.07 185.111C1488.8 220.551 1459.44 229.359 1430.72 231.833C1396.31 232.897 1369.29 225.129 1364.63 186.825L1394.8 186.947C1404.08 207.167 1419.29 203.112 1437.82 202.907C1452.9 202.741 1462.14 186.818 1449.49 181.564C1423.33 170.708 1369.58 184.875 1366.54 142.571C1364.05 107.917 1389.75 96.7308 1419.67 94.5898Z" fill="#FEFEFE"/>
<path d="M585.667 98.0831L627.238 97.9951C640.903 132.045 653.719 166.445 667.17 200.581C670.779 209.741 674.382 218.905 677.525 228.237L643.316 228.324C640.767 221.382 638.415 211.654 634.518 205.204C633.546 203.597 631.922 203.848 630.035 203.67C613.462 204.178 594.734 203.756 577.993 203.762L569.426 228.288L535.953 228.373C549.91 187.445 569.985 139.274 585.667 98.0831ZM587.569 176.649L608.049 176.513L624.945 176.514C622.493 169.328 609.227 128.414 606.126 125.788C599.727 141.678 593.971 161.876 587.569 176.649Z" fill="#FEFEFE"/>
<path d="M1244.92 97.98L1349.02 97.958L1349 125.923L1277.29 125.759L1277.26 148.452L1335.01 148.463L1334.96 176.325L1279.7 176.187C1278.6 176.382 1278.65 176.665 1277.67 177.619C1276.89 182.464 1277.22 195.284 1277.25 200.796L1349 200.643L1348.96 228.235L1244.93 228.34L1244.92 97.98Z" fill="#FEFEFE"/>
<path d="M773.219 97.9895L805.761 97.8525L805.77 126.599C805.9 151.371 811.129 197.279 792.961 215.079C770.082 237.494 718.252 237.557 695.499 214.703C690.32 209.588 686.619 203.169 684.787 196.124C682.121 185.625 682.96 163.765 682.992 152.229L683.102 97.9165L715.528 97.9535C715.638 122.563 715.439 147.289 715.47 171.93C715.497 193.675 721.69 202.059 744.229 202.833C778.536 204.01 773.445 176.467 773.397 151.698L773.219 97.9895Z" fill="#FEFEFE"/>
<path d="M1504.11 97.9725L1536.57 97.9385L1536.61 151.81C1548.48 140.348 1572.99 111.358 1584.87 98.0445L1623.35 97.9645L1562.84 164.173C1572.17 173.432 1582.44 184.913 1591.55 194.615C1601.64 205.314 1613.2 217.109 1622.59 228.203L1582.24 228.34L1536.69 177.814C1536.53 194.628 1536.46 211.444 1536.5 228.259L1504.41 228.306C1503.21 186.531 1504.09 140.147 1504.11 97.9725Z" fill="#FEFEFE"/>
<path d="M2061.1 127.357C2085.68 125.075 2110.2 133.699 2115.41 159.865C2121.67 191.297 2115.77 221.799 2081.14 230.113C2055.7 233.334 2030.76 224.563 2025.52 196.246C2019.9 165.9 2026.16 134.522 2061.1 127.357ZM2077.43 213.403C2098.49 204.911 2097.74 177.237 2092.14 158.364C2088.49 146.043 2075.36 142.441 2063.31 144.452C2042.47 153.211 2043.73 181.114 2049.32 199.87C2052.93 211.998 2065.67 215.092 2077.43 213.403Z" fill="#FEFEFE"/>
<path d="M821.547 97.9023L937.878 98.0043L937.93 125.937L896.044 125.768L896.041 185.728L895.957 228.206L863.608 228.329L863.573 125.723L821.61 125.921L821.547 97.9023Z" fill="#FEFEFE"/>
<path d="M1779.04 129.295L1801.28 129.388C1801.68 151.017 1800.69 172.817 1801.18 194.46C1801.31 200.246 1802.76 207.183 1806.94 211.475C1816.44 221.241 1831.55 208.877 1838.51 201.696C1839.36 180.036 1838.6 151.482 1838.6 129.356L1860.86 129.379L1860.84 156.599C1860.92 180.521 1860.86 204.443 1860.68 228.364L1842.14 228.36C1841.72 225.262 1841.56 221.111 1839.65 218.826C1806.51 241.25 1777.83 233.028 1778.84 190.123C1779.3 170.393 1778.94 149.183 1779.04 129.295Z" fill="#FEFEFE" fill-opacity="0.988235"/>
<path d="M1690 98.0534L1767.35 97.8984L1767.28 115.743L1712.55 115.838L1712.47 155.041L1759.63 154.839L1759.57 172.651C1745.8 173.304 1726.68 172.71 1712.49 172.721C1712.59 191.232 1712.52 209.743 1712.27 228.252L1690.02 228.39L1690 98.0534Z" fill="#FEFEFE"/>
<path d="M2136.27 129.41C2144.62 129.204 2155.36 126.558 2156.14 136.951L2157.41 137.882C2172.25 128.443 2182.9 122 2201.61 130.199C2208.5 133.219 2213.06 138.419 2215.64 145.546C2215.75 170.245 2216.81 203.989 2215.63 228.043C2212.08 228.492 2200.34 228.381 2196.26 228.424C2196.19 206.636 2197.19 183.645 2196.26 162.032C2195.17 136.971 2171.51 139.852 2158.48 156.315L2158.36 228.283L2136.28 228.391L2136.27 129.41Z" fill="#FEFEFE"/>
<path d="M1910.3 127.321C1928.17 125.312 1940.93 129.132 1955.66 138.914L1945.39 151.226C1933.68 144.377 1914.35 137.466 1903.93 150.413C1902.25 152.504 1902.51 153.858 1902.83 156.213C1913.09 173.098 1975.71 173.352 1952.61 216.527C1947.78 225.541 1933.68 229.027 1924.31 230.808C1904.38 231.27 1892.83 229.097 1876.74 217.574L1887.5 204.804C1899.42 212.862 1923.83 220.576 1933.49 207.74C1945.7 191.527 1901.63 183.84 1893.6 177.26C1869.26 157.323 1881.79 133.188 1910.3 127.321Z" fill="#FEFEFE" fill-opacity="0.988235"/>
<path d="M1968.22 129.319L2005.42 129.399C2005.57 162.373 2005.54 195.348 2005.32 228.322L1983.43 228.345C1982.85 201.64 1983.36 172.923 1983.35 146.063L1968.36 146.196L1968.22 129.319Z" fill="#FEFEFE"/>
<path d="M1989.55 86.6799C1996.79 84.5029 2004.42 88.6319 2006.55 95.8829C2008.69 103.134 2004.52 110.739 1997.26 112.835C1990.05 114.914 1982.52 110.783 1980.4 103.589C1978.28 96.3949 1982.37 88.8399 1989.55 86.6799Z" fill="#FEFEFE"/>
<path d="M2215.64 145.546C2216.57 147.853 2218.24 153.135 2218.18 155.364C2217.95 164.271 2220.33 223.164 2217.6 227.667L2215.62 228.043C2216.8 203.989 2215.75 170.245 2215.64 145.546Z" fill="#FEFEFE" fill-opacity="0.964706"/>
</svg>
