<svg width="1182" height="219" viewBox="0 0 1182 219" fill="none" xmlns="http://www.w3.org/2000/svg">
<path d="M0.0999983 0.07851C4.07128 0.109783 8.19229 0.267285 12.1769 0.362299C19.135 0.497855 26.3355 0.193976 33.3074 0C44.3387 0.514897 57.9568 0.107212 69.2497 0.0938772C96.1253 -0.0288227 123.001 0.00400561 149.876 0.192241C150.02 23.3174 150.035 46.4431 149.92 69.5683C163.791 71.5308 174.596 74.0147 186.427 82.3956C202.478 93.7669 214.667 111.32 217.913 130.927C221.401 151.492 216.416 172.594 204.097 189.412C180.801 221.882 132.251 228.41 100.462 205.103C88.5097 196.34 77.4132 182.428 73.1622 168.057C71.5874 162.731 70.8 155.898 69.8998 150.348C66.9704 149.827 41.1348 150.006 36.6814 150.161C28.6279 150.441 6.84361 149.21 0.218318 150.171C-0.239857 133.843 0.16501 115.536 0.167517 99.0827L0.0999983 0.07851ZM135.215 13.8434C109.868 13.9914 84.5208 14.0069 59.1734 13.89C45.9004 13.8825 26.7032 14.4846 13.8398 13.7567C14.1097 34.6162 14.1897 55.4782 14.0798 76.3395C14.0838 95.8764 14.3431 116.163 13.8112 135.643C21.5742 135.516 66.589 136.53 70.6896 135.29C71.1277 132.202 71.0758 129.888 71.6179 126.643C73.8069 113.548 81.804 101.541 90.6176 91.7416C102.616 80.06 118.183 71.6038 135.058 70.4168C135.239 52.193 134.524 31.6302 135.215 13.8434ZM83.5274 150.581C89.1945 182.224 108.867 200.486 140.212 205.611C149.491 206.161 160.31 203.652 168.87 199.856C205.709 183.52 216.717 135.39 190.091 104.89C180.363 93.7459 165.967 85.014 150.756 84.1339C150.58 84.1237 150.405 84.1147 150.229 84.1069C149.171 98.6946 150.485 116.347 149.992 131.096C149.795 136.976 150.342 144.33 149.527 150.127L106.899 150.185C100.361 150.185 89.6619 149.821 83.5274 150.581ZM84.9948 135.388C101.862 135.929 118.679 135.397 135.484 135.748C135.218 130.57 135.205 84.4304 134.955 84.0328C115.653 88.704 102.759 96.5408 91.8211 113.818C89.3485 117.723 84.1775 130.21 83.6522 134.678L84.0307 135.572L84.9948 135.388Z" fill="white"/>
<path d="M296.614 15.2012C301.621 14.9424 305.136 14.9398 310.148 15.1559C311.146 23.7511 310.035 76.8771 310.987 78.5975C314.702 76.7475 317.789 74.2304 321.112 71.6725C339.762 57.3192 369.047 59.8939 385.067 77.2316C401.335 94.8386 403.231 126.997 395.939 149.128C394.537 153.384 389.277 164.182 385.874 167.327C369.351 184.886 343.931 187.801 323.371 175.517C319.259 173.06 314.899 168.176 310.707 166.24C310.946 168.598 310.516 177.274 310.507 180.4C306.681 180.721 300.709 180.508 296.722 180.482C296.075 172.557 296.346 162.045 296.35 153.981L296.363 111.204C296.369 80.7697 295.395 45.0259 296.614 15.2012ZM356.879 167.627C362.718 166.865 372.184 160.512 375.521 155.652C388.971 136.062 388.689 98.3347 368.516 83.0096C358.662 75.5237 350.523 76.8021 339.216 77.0606C317.76 81.0546 308.8 105.065 309.975 124.512C310.876 139.422 313.642 153.805 326.935 162.658C337.052 169.59 345.46 167.465 356.879 167.627Z" fill="white"/>
<path d="M843.743 15L849.754 15.4863L849.808 115.402C849.814 136.597 850.32 159.486 849.664 180.55C844.922 180.594 840.873 180.48 836.137 180.23C835.511 175.447 835.349 170.115 835.102 165.259C829.56 170.252 825.216 175.165 818.278 178.148C798.746 186.544 779.274 184.085 762.781 170.447C736.937 146.356 738.134 83.642 773.847 67.8243C790.189 60.5862 804.932 60.2303 820.92 68.8674C824.03 70.5486 832.202 78.8148 835.102 77.4027C836.221 56.6091 833.947 37.6471 836.023 15.4342L843.743 15ZM807.657 167.593C814.619 166.829 822.598 161.125 826.841 155.742C835.523 144.718 837.479 127.303 835.89 113.819C834.464 101.742 829.837 91.0629 820.191 83.3688C810.552 75.6771 802.338 76.9365 790.803 77.2031C785.291 77.6842 778.341 81.7284 774.208 85.3753C755.127 102.21 755.452 144.401 774.96 160.831C785.773 169.944 794.726 167.426 807.657 167.593Z" fill="white"/>
<path d="M934.103 62.1415C944.501 61.1454 959.815 65.5283 968.465 71.5357C981.365 80.4979 989.147 93.7654 991.881 109.08C994.693 124.778 992.381 145.354 982.923 158.543C970.718 175.559 961.39 179.055 942.284 182.681C935.168 184.3 918.956 179.405 912.5 175.875C876.759 156.335 874.263 96.0855 907.114 72.5874C915.734 66.4204 924.211 65.0001 934.103 62.1415ZM948.68 167.448C958.263 164.841 966.42 158.499 971.348 149.826C983.505 128.68 979.736 93.5691 957.193 80.7426C948.205 75.6273 940.108 76.8245 930.198 77.0488C925.632 77.7392 919.699 80.7755 915.942 83.4833C901.645 93.8485 898.411 111.946 899.748 128.681C900.788 141.772 904.795 152.885 915.448 161.059C927.047 169.961 935.316 166.96 948.68 167.448Z" fill="white"/>
<path d="M539.297 62.1346C549.265 61.1246 564.829 65.9484 573.561 71.6387C600.326 89.0811 604.838 132.047 588.416 157.825C577.682 174.681 565.004 179.131 546.114 182.766C539.286 184.139 522.848 179.164 516.643 175.818C482.687 157.501 478.672 102.744 505.933 76.9736C516.859 66.6443 525.545 66.1196 539.297 62.1346ZM552.14 167.362C559.541 166.662 568.37 160.326 572.921 154.628C588.122 135.599 586.826 100.284 567.331 84.432C556.466 75.5962 547.935 76.7582 534.981 77.0651C529.852 77.6814 522.13 81.6155 518.168 84.9717C497.741 102.271 498.03 143.424 518.71 160.372C529.88 169.526 539.245 167.208 552.14 167.362Z" fill="white"/>
<path d="M633.437 15.2035C638.494 14.9474 642.073 14.9382 647.13 15.1467C648.061 40.3663 646.83 66.9226 647.334 92.2303C647.472 99.2163 646.896 117.518 647.971 123.567L648.71 123.808C654.878 121.108 699.254 72.9507 707.091 65.4898C714.671 64.56 720.436 65.0258 727.925 65.7212C722.886 69.6343 712.593 80.9604 707.686 85.8739C700.773 92.799 692.227 100.735 686.089 107.979C687.849 111.762 695.326 122.215 698.125 126.317C705.109 136.743 712.172 147.116 719.313 157.434C724.658 164.811 729.379 171.092 733 179.485C728.448 180.149 722.952 179.971 718.376 179.84C717.061 178.968 714.677 177.334 713.842 176.036C701.344 156.561 687.933 137.438 675.393 118.003C667.808 124.253 654.92 138.647 647.316 146.202C647.352 157.216 647.611 169.028 647.004 179.96C642.848 180.071 638.062 179.918 633.858 179.886C632.999 174.476 633.257 164.251 633.257 158.498L633.287 124.067C633.281 88.5444 632.554 50.5335 633.437 15.2035Z" fill="white"/>
<path d="M1134.91 62.2456C1147.8 60.5208 1168.42 68.0788 1176.44 78.6899C1183.92 88.6034 1175.23 89.2706 1169.7 93.5308C1163.95 86.3818 1156.98 78.4496 1147.34 77.3573C1138.74 76.778 1129.37 75.6911 1121.81 80.5181C1112.3 85.8282 1112.75 99.758 1121.71 104.623C1147.1 118.408 1187.12 112.549 1181.46 154.384C1178.81 173.942 1153.82 185.402 1135.91 182.574L1133.82 182.142C1118.59 178.961 1107.32 175.021 1098.26 161.728C1090.61 150.505 1097.77 151.049 1105.78 146.1C1110.24 154.476 1113.47 158.716 1121.99 164.217C1128.5 168.311 1145.33 168.254 1152.43 166.72C1165.51 163.668 1172.98 146.065 1161.98 136.64C1149.37 125.828 1129.13 126.776 1114.36 118.779C1098.76 110.33 1096.74 93.874 1103.97 79.329C1109.49 68.227 1124.23 65.1374 1134.91 62.2456Z" fill="white"/>
<path d="M1044.99 23L1045 30.6296L1044.35 30.5157L1043.63 28.3205L1043.11 28.6153C1042.89 30.713 1042.66 36.7213 1043.08 38.6794C1043.02 42.7907 1042.59 62.2393 1043.36 64.7653L1044.81 65.1447C1053.4 64.9874 1063.96 64.9286 1072.49 65.2455C1072.54 67.8304 1072.53 75.2234 1073 77.3641C1067.89 77.319 1050.96 76.8706 1046.57 78.1852C1051.22 78.9566 1070.92 77.8881 1072.61 78.6078C1069.79 80.9267 1050.33 79.4422 1045.28 79.9543L1043.82 80.4399L1043.06 80.4969C1042.73 82.7288 1042.81 83.3789 1043.07 85.6293C1042.95 105.065 1042.48 128.108 1043.07 147.4C1042.93 149.378 1042.73 150.681 1043.25 152.601L1043.47 152.325L1045.25 151.862C1045.26 152.282 1045.27 152.701 1045.29 153.12C1045.64 160.382 1047.72 162.668 1052.83 167.334C1060.96 167.899 1064.64 168.036 1072.61 166.56L1072.64 180.413C1060.85 181.77 1050.64 186.894 1039.47 177.323C1028.05 167.548 1030.56 149.061 1030.62 135.249L1030.67 96.5893C1030.67 92.2961 1030.68 84.8034 1030.48 80.746C1030.33 77.9133 1015.28 80.2868 1011.4 77.2224C1010.69 75.3693 1011.11 68.6209 1011.23 66.2906C1013.66 64.09 1026.49 65.0841 1030.68 65.2011C1030.67 57.1087 1030.58 49.1832 1030.11 41.1412C1029.68 33.7841 1039.73 27.7051 1044.99 23Z" fill="white"/>
<path d="M437.441 15.052C441.005 15.0092 445.961 14.7025 449.072 16.2766C448.56 17.0866 448.88 42.1128 448.874 45.4032L448.948 113.64C448.899 122.325 448.801 131.053 448.763 139.735C448.713 150.703 447.766 157.832 453.542 167.483C459.267 167.892 465.018 167.775 470.722 167.136C470.842 170.293 471.307 176.975 470.676 179.756L469.627 180.344L469.522 180.377C461.285 182.883 453.766 184.7 445.591 180.478C437.439 176.267 434.457 167.251 434.373 158.592C434.174 137.857 434.308 117.068 434.316 96.3155L434.372 38.8775C434.366 32.5357 433.307 22.6209 434.789 16.2373C434.97 15.4539 436.583 15.2698 437.441 15.052Z" fill="white"/>
<path d="M1043.38 80.4831L1045 80L1044.97 151.54L1043 152C1044.15 146.37 1043.96 127.837 1043.83 121.361C1043.58 108.706 1044.4 92.8919 1043.38 80.4831Z" fill="white"/>
<path d="M1043.15 86.1778C1042.98 83.9324 1042.92 83.2838 1043.15 81.0569L1043.66 81C1044.29 93.4448 1043.79 109.305 1043.94 121.996C1044.02 128.491 1044.14 147.078 1043.43 152.724L1043.28 153C1042.92 151.085 1043.06 149.784 1043.15 147.81C1043.8 144.493 1043.69 89.0863 1043.15 86.1778Z" fill="white"/>
<path d="M1043.99 31L1044.65 31.1119C1044.95 35.6978 1045.33 61.5728 1044.46 65L1043 64.6275L1043.43 62.0496C1044.43 57.2284 1043.55 37.7719 1043.99 31Z" fill="white"/>
<path d="M1043.31 86C1044.14 88.8786 1044.31 143.716 1043.31 147C1042.68 127.949 1043.18 105.193 1043.31 86Z" fill="white"/>
<path d="M1072.6 79C1070.87 77.9365 1050.76 79.5153 1046 78.3755C1050.48 76.433 1067.78 77.0956 1073 77.1621L1072.6 79Z" fill="white"/>
<path d="M1043.15 39.108C1042.88 37.1973 1043.03 31.3345 1043.17 29.2877L1043.53 29L1044 31.142C1043.7 37.8721 1044.29 57.2086 1043.63 62C1043.25 55.869 1043.9 44.4716 1043.15 39.108Z" fill="white"/>
<path d="M1043.19 39C1044.46 44.4787 1043.35 56.1205 1044 62.383L1043.51 65C1042.64 62.4823 1043.13 43.0978 1043.19 39Z" fill="white"/>
</svg>
