<svg width="1029" height="230" viewBox="0 0 1029 230" fill="none" xmlns="http://www.w3.org/2000/svg">
<path d="M136.102 125.14C139.758 120.632 145.761 119.799 150.716 120.407C158.976 121.422 186.878 118.029 191.77 124.726C198.699 134.212 224.376 164.233 226.945 173.771C225.97 182.431 197.46 217.572 190.163 225.816C186.219 230.271 150.5 228.535 143.262 228.062C139.824 227.837 138.363 226.574 136.047 224.04C135.021 218.776 135.511 188.273 135.546 180.852C127.073 191.651 110.484 216.038 102.044 224.694C95.887 231.008 8.61512 229.781 2.12949 225.517C-0.208635 218.693 -1.50237 128.964 3.02107 123.061C6.02107 119.145 38.107 120.857 46.9373 120.757C58.1986 120.629 79.537 120.279 91.7732 120.846C104.136 121.536 110.025 133.961 116.472 142.641C122.91 151.31 129.143 159.695 135.557 168.186C135.493 159.213 134.869 132.845 136.102 125.14Z" fill="white"/>
<path d="M136.102 125.14C139.758 120.632 145.761 119.799 150.716 120.407C158.976 121.422 186.878 118.029 191.77 124.726C198.699 134.212 224.376 164.233 226.945 173.771C225.97 182.431 197.46 217.572 190.163 225.816C186.219 230.271 150.5 228.535 143.262 228.062C139.824 227.837 138.363 226.574 136.047 224.04C136.932 214.621 136.454 195.335 136.4 184.983C136.3 165.57 136.851 144.368 136.102 125.14Z" fill="white"/>
<path d="M136.177 4.78836C138.894 1.52211 140.886 0.540537 145.115 0.53585C152.831 0.527412 186.303 -1.84447 190.78 3.4599C198.768 12.923 223.681 43.719 226.901 54.0005C226.71 62.3537 198.437 93.8058 193.19 102.784C190.552 107.296 177.993 108.916 173.363 108.1C163.305 106.469 143.296 111.92 136.21 103.873C135.066 99.0005 135.593 67.403 135.633 60.0914C128.767 69.7252 107.999 101.431 99.3254 105.705C96.467 107.114 93.2195 107.785 90.0564 108.012C79.2414 108.788 10.3557 108.753 3.90573 106.629C1.29479 104.174 0.305719 97.359 0.522281 94.1518C1.41572 80.919 -2.4177 8.63396 3.35824 2.13427C13.4382 -1.1976 80.5323 0.289297 94.9773 1.14336C96.1051 1.20992 100.096 2.2524 100.862 3.05584C112.413 15.1787 125.83 34.823 135.637 48.1543C135.578 38.5618 134.952 13.1377 136.177 4.78836Z" fill="white"/>
<path d="M136.176 4.78836C138.894 1.52211 140.885 0.540537 145.114 0.53585C152.83 0.527412 186.302 -1.84447 190.779 3.4599C198.767 12.923 223.68 43.719 226.9 54.0005C226.709 62.3537 198.436 93.8058 193.189 102.784C190.551 107.296 177.992 108.916 173.362 108.1C163.304 106.469 143.295 111.92 136.21 103.873C137.239 92.6246 136.658 69.2199 136.594 57.2115C136.513 41.8702 137.285 19.4715 136.176 4.78836Z" fill="white"/>
<path d="M304.559 55.4494C323.733 55.3434 345.86 54.1879 364.748 56.5363C394.046 60.1806 404.651 94.4877 377.808 112.069C397.694 121.931 404.279 137.047 395.693 157.983C381.565 182.779 330.581 176.071 304.524 175.951L304.559 55.4494ZM352.36 122.758C344.064 122.746 335.67 122.737 327.355 122.842L327.395 156.32C340.033 156.458 361.54 158.315 371.504 151.668C384.32 133.239 370.825 122.786 352.36 122.758ZM365.701 100.432C382.987 71.3843 343.494 74.7885 327.356 74.9816L327.396 104.338C338.758 104.6 356.385 106.353 365.701 100.432Z" fill="white"/>
<path d="M592.15 55.1885C593.575 57.2159 592.946 164.838 592.937 175.949L571.543 175.948L571.478 163.338C570.859 164.158 570.221 164.966 569.575 165.763C555.953 182.742 534.465 180.923 518.621 168.091C517.309 166.734 516.034 165.333 514.815 163.892C505.899 153.206 503.574 139.358 504.568 125.888C507.165 90.757 546.774 68.7147 571.515 99.9268L571.525 59.8779L589.205 55.5146C589.862 55.3506 591.4 55.2588 592.15 55.1885ZM556.674 106.016C552.184 104.369 547.43 104.655 542.752 105.183C516.493 116.348 520.196 162.364 555.39 158.141C571.356 151.029 576.25 133.422 569.34 118.032C566.903 112.486 562.337 108.155 556.674 106.016Z" fill="white"/>
<path d="M677.414 55.5098C679.383 55.102 678.408 55.0659 680.424 55.8272C681.98 61.1746 681.211 92.4601 681.146 99.6299C683.339 97.0668 685.833 94.1022 688.495 92.0576C695.611 86.5911 704.639 84.2365 713.518 85.5283C723.652 87.094 732.755 92.6181 738.83 100.888C755.095 122.741 750.464 156.444 728.029 172.672C710.095 182.536 694.57 178.952 681.201 164.18L681.08 175.953L659.695 175.944L659.705 59.9053L677.414 55.5098ZM710.087 158.114C736.29 145.866 731.921 101.387 697.327 105.167C670.852 116.515 674.79 162.441 710.087 158.114Z" fill="white"/>
<path d="M794.002 85.4955C806.911 84.5758 820.636 86.4228 830.171 96.0453C834.23 100.163 837.089 105.309 838.43 110.929C840.773 120.329 839.762 163.06 839.715 175.953C835.44 175.951 823.393 176.484 820.064 175.353C819.783 173.222 819.624 171.445 819.483 169.299C816.455 169.191 812.115 174.315 808.73 175.416C789.887 181.563 768.999 177.932 760.205 158.752C755.058 122.906 794.302 113.724 818.293 130.369C818.415 121.095 818.808 113.213 810.305 107.084C806.452 104.312 801.633 103.225 796.965 104.074C789.512 105.396 784.702 109.761 780.483 115.608L762.596 107.845C770.068 93.2801 778.383 88.6877 794.002 85.4955ZM804.408 162.004C828.043 156.836 820.646 136.791 796.346 138.076C791.152 139.196 786.108 140.115 782.893 144.828C781.543 146.793 781.102 149.239 781.664 151.552C784.064 161.374 796.261 162.475 804.408 162.004Z" fill="white"/>
<path d="M984.718 85.3895C1017.04 84.7332 1028.15 108.07 1028.27 136.621C1007.25 136.536 986.218 136.562 965.19 136.702C971.987 163.764 988.477 167.208 1008.84 147.795C1009.61 147.064 1014.95 149.222 1016.06 149.592L1026.7 153.541C1014.61 177.756 982.881 186.021 962.837 170.791C931.149 146.721 939.343 92.9578 981.371 85.5233C982.487 85.4586 983.602 85.4139 984.718 85.3895ZM1005.17 114.795C999.174 104.755 990.849 101.887 980.35 103.329C970.778 108.324 969.634 111.257 965.715 121.532L995.518 121.593C1000.09 121.613 1001.3 122.354 1004.79 120.432C1005.51 118.501 1006.34 116.75 1005.17 114.795Z" fill="white"/>
<path d="M885.839 85.5363C907.205 83.772 925.917 91.4389 930.539 113.846L912.839 118.44C908.855 106.545 902.002 102.779 888.858 102.753C882.333 102.739 877.964 105.748 878.471 112.931C884.508 125.918 928.308 120.846 930.989 145.234C933.502 168.093 917.892 175.246 898.411 177.953C875.208 178.174 861.952 171.108 854.021 148.856C859.458 146.958 865.392 145.146 870.905 143.362C877.974 158.486 889.102 164.78 907.083 157.704C909.296 156.832 910.683 153.424 911.096 151.102C908.199 138.173 859.608 140.849 857.517 116.333C855.792 96.0813 868.064 88.781 885.839 85.5363Z" fill="white"/>
<path d="M413.683 87.4463L435.251 87.4688C435.177 105.818 434.106 126.191 435.898 144.251C437.841 163.847 467.557 163.659 469.03 142.804C470.319 124.561 469.539 105.803 469.447 87.4576L490.878 87.4716L490.879 106.408C490.988 125.132 494.724 152.761 481.021 166.722C466.244 181.777 438.839 181.948 423.811 166.963C419.598 162.794 416.561 157.585 415.008 151.866C412.485 142.52 413.604 99.5607 413.683 87.4463Z" fill="white"/>
<path d="M615.69 87.4502L637.018 87.4614L636.971 175.953L615.605 175.946L615.69 87.4502Z" fill="white"/>
<path d="M622.027 50.7968C626.686 49.2189 631.843 50.2699 635.508 53.5465C639.174 56.823 640.805 61.8199 639.755 66.6283C638.715 71.4358 635.171 75.3124 630.474 76.7758C623.33 79.0005 615.727 75.0686 613.421 67.9567C611.105 60.8439 614.949 53.1949 622.027 50.7968Z" fill="white"/>
</svg>
