<svg width="1029" height="272" viewBox="0 0 1029 272" fill="none" xmlns="http://www.w3.org/2000/svg">
<path d="M440.422 110.584L461.374 110.687C470.107 133.973 478.362 161.73 486.501 185.702C493.122 161.891 502.07 134.792 509.388 110.932L535.2 110.877L526.562 136.612L497.265 222.93L475.685 222.955C467.246 198.935 459.205 174.734 450.602 150.772C442.827 174.641 433.974 199.061 425.862 222.925L404.12 222.972C391.743 185.874 378.037 148.006 366.207 110.882C375.01 110.923 383.813 110.915 392.616 110.856L415.459 185.786L440.422 110.584Z" fill="white"/>
<path d="M573.328 135.142C598.033 130.259 622.001 146.392 626.776 171.118C631.552 195.845 615.313 219.741 590.566 224.408C565.972 229.047 542.253 212.932 537.507 188.358C532.761 163.783 548.774 139.994 573.328 135.142ZM585.514 203.02C615.476 195.795 607.158 154.235 579.293 156.472C550.169 162.32 555.142 204.478 585.514 203.02Z" fill="white"/>
<path d="M711.982 106.012L736.304 106.03L736.319 167.738C745.642 157.374 755.023 147.065 764.467 136.812L793.763 136.722C784.666 147.086 770.985 160.399 761.13 170.591C768.612 181.943 776.016 193.342 783.356 204.788L794.755 222.222L766.784 222.212C759.316 210.729 751.934 199.189 744.65 187.591L736.212 196.342L736.311 222.204L711.975 222.214L711.982 106.012Z" fill="white"/>
<path d="M833.283 135.854C866.972 132.117 884.281 156.377 881.242 188.187L822.011 188.196C828.912 209.747 848.41 207.96 863.635 195.836L867.503 199.413L877.571 208.315C862.041 225.651 836.868 229.783 817.144 217.108C807.792 211.102 801.259 201.571 799.027 190.68C793.593 164.866 806.898 141.294 833.283 135.854ZM858.279 172.788C854.977 161.894 850.719 154.054 837.668 155.002C827.565 157.737 824.178 162.653 821.67 172.791L842.188 172.811L858.279 172.788Z" fill="white"/>
<path d="M989.082 135.913C1004.09 134.97 1013.76 137.881 1026.64 145.43L1017.34 162.286C1011.36 159.076 985.759 146.975 985.313 161.022C989.904 170.93 1030.15 172.399 1028.91 195.555C1027.79 216.681 1014.5 223.288 995.6 223.769C980.828 223.694 970.866 219.184 958.971 211.04L969.464 194.808C977.909 201.056 996.018 209.633 1005.5 201.89C1006.87 200.776 1006.98 200.041 1007.04 198.456C1003.2 190.943 983.556 188.492 974.706 182.721C958.014 171.833 959.778 152.3 975.018 140.839C978.568 138.167 984.448 136.812 989.082 135.913Z" fill="white"/>
<path d="M693.923 135.223C695.998 135.275 695.29 134.971 696.672 136.217C697.685 140.904 697.175 154.966 697.075 160.538C662.6 163.721 669.848 195.855 670.025 222.209L645.695 222.218L645.738 209.94L645.794 136.735L670.089 136.844L669.968 152.35C676.841 141.306 680.575 136.823 693.923 135.223Z" fill="white"/>
<path d="M947.514 135.213L949.554 135.326C951.829 138.308 950.858 155.592 950.794 160.56C916.51 163.007 923.567 196.548 923.708 222.206L899.506 222.213L899.513 212.42L899.499 136.776L923.737 136.822L923.659 153.017C930.007 141.808 934.137 136.947 947.514 135.213Z" fill="white"/>
<path d="M481.068 38.4915C492.656 36.6941 503.551 44.5067 505.564 56.0589C507.578 67.6111 499.971 78.6486 488.458 80.8782C480.817 82.3575 472.971 79.5957 467.943 73.6546C462.915 67.7141 461.487 59.5213 464.209 52.2298C466.93 44.9384 473.377 39.6847 481.068 38.4915ZM494.443 56.6302C492.669 51.0971 486.723 48.0725 481.206 49.8968C475.759 51.6978 472.782 57.5512 474.533 63.014C476.285 68.477 482.112 71.5074 487.59 69.805C493.139 68.0805 496.217 62.1626 494.443 56.6302Z" fill="white"/>
<path d="M574.838 39.4451C588.902 39.365 612.091 37.4328 613.345 57.6218C613.798 64.9955 612.268 68.879 607.372 74.3406C597.637 81.7233 586.755 80.0233 574.746 79.8767L574.838 39.4451ZM586.266 49.6404C586.216 55.1905 585.019 65.735 588.278 69.4304C591.573 71.16 596.256 69.2063 599.04 67.1824C607.223 55.3878 597.722 49.668 586.266 49.6404Z" fill="white"/>
<path d="M780.43 39.4348C794.005 39.3448 820.232 35.852 816.173 57.1077C815.316 61.6227 812.021 63.7579 808.479 66.054C810.321 68.7143 817.597 77.5621 816.478 80.1282L814.104 80.1595L804.794 80.2503C801.974 76.064 798.56 69.2783 794.075 68.3372L792.765 69.3489C791.227 72.1487 791.793 76.8675 791.893 80.2405L780.415 80.2122L780.43 39.4348ZM804.83 52.7552C801.989 48.3605 796.314 49.293 791.503 49.4163L791.546 59.0882C795.96 59.0287 798.97 59.134 803.292 58.097C804.645 55.8029 804.993 55.3928 804.83 52.7552Z" fill="white"/>
<path d="M832.532 39.4551L865.399 39.4671L865.286 49.2057C859.391 49.1398 848.119 48.391 843.245 51.3219L843.386 53.3056C848.254 55.8115 857.776 55.1717 863.437 55.081L863.394 64.0424L846.341 64.0481C845.42 64.0609 844.966 64.2713 844.067 64.5242C843.634 66.3386 843.28 67.0279 843.932 68.7601C846.681 71.3595 860.808 70.3095 865.64 70.25L865.633 79.8441L832.539 79.9043L832.532 39.4551Z" fill="white"/>
<path d="M766.231 79.8398L753.642 79.8652C752.827 77.6011 751.913 74.0425 750.106 72.7041L735.617 72.6758L732.741 79.9062L720.604 79.8164L737.856 39.2939L748.739 39.2812L766.231 79.8398ZM743.177 53.3896C741.689 56.7513 739.492 60.0704 740.484 63.2139C742.036 64.1581 743.453 63.9516 745.316 63.9629L746.612 63.5303C747.292 61.169 744.374 55.8169 743.177 53.3896Z" fill="white"/>
<path d="M386.62 38.9307C398.439 39.0539 404.403 45.2566 408.156 55.7291L396.05 55.8304C381.87 35.2261 365.59 66.8953 385.038 70.4128C391.954 71.6633 391.819 64.874 399.989 64.575L404.678 64.5375C406.572 65.591 405.993 64.9031 406.702 67.2849C405.4 74.5609 394.566 80.2293 387.857 81.0072C382.597 81.6172 375.892 79.4507 371.81 76.116C367.628 72.6339 365.014 67.6236 364.547 62.2024C363.984 56.5382 365.729 50.886 369.388 46.5247C374.473 40.5601 379.404 39.4811 386.62 38.9307Z" fill="white"/>
<path d="M546.082 39.4609L557.79 39.473L557.836 48.4103C557.942 56.5456 559.154 69.4178 553.33 75.5382C546.667 82.7107 530.863 82.3565 524.268 75.4078C517.65 68.4337 519.842 48.8687 519.953 39.4744L531.452 39.49C531.368 46.4521 529.944 65.529 533.987 68.4691C550.36 80.3763 546.136 42.9013 546.082 39.4609Z" fill="white"/>
<path d="M629.556 39.4797L662.309 39.4727L662.324 49.681C656.209 49.88 646.928 48.2704 642.33 50.8025C640.714 52.9867 641.132 52.0699 640.927 54.8365C644.165 58.2414 656.634 54.4178 660.241 57.1369C660.354 59.5124 660.786 62.2088 659.546 64.1542C655.812 67.1673 647.056 65.5683 641.055 65.5464L641.047 79.8432L629.591 79.8794L629.556 39.4797Z" fill="white"/>
<path d="M419.925 39.4795L431.378 39.4922L431.387 69.9386C437.915 69.9677 444.519 69.86 451.054 69.8061L451.103 79.8713L419.898 79.8905L419.925 39.4795Z" fill="white"/>
<path d="M677.762 39.457L688.977 39.4634C688.892 49.6327 688.892 59.8021 688.963 69.9714L708.567 69.8772L708.581 79.8503L677.712 79.9034L677.762 39.457Z" fill="white"/>
<path d="M220.41 0C233.986 -1.32251e-07 246.531 7.24279 253.319 19L309.715 116.68C316.503 128.437 316.503 142.922 309.715 154.68L253.319 252.36C246.531 264.117 233.986 271.36 220.41 271.36H107.619C106.53 271.36 105.447 271.313 104.374 271.221H162.172L229.537 154.54C236.325 142.783 236.325 128.298 229.537 116.541L164.771 4.36035C163.429 2.03767 161.14 0.459859 158.551 0H220.41Z" fill="white"/>
<path d="M94.3955 0C80.8194 -1.32251e-07 68.2744 7.24279 61.4863 19L5.09082 116.68C-1.69722 128.437 -1.6972 142.922 5.09082 154.68L61.4863 252.36C68.2744 264.117 80.8196 271.36 94.3955 271.36H207.187C208.276 271.36 209.358 271.313 210.432 271.221H152.634L85.2686 154.54C78.4807 142.783 78.4807 128.298 85.2686 116.541L150.035 4.36035C151.376 2.03767 153.666 0.459859 156.255 0H94.3955Z" fill="white"/>
<path d="M231.341 116.68C238.129 128.437 238.129 142.922 231.341 154.68L163.976 271.36H29.2451C28.1559 271.36 27.0735 271.313 26 271.221H83.7979L151.163 154.54C157.951 142.783 157.951 128.298 151.163 116.541L86.3965 4.36035C85.0555 2.03767 82.7655 0.459859 80.1768 0H163.976L231.341 116.68Z" fill="#CACACA"/>
</svg>
