<svg width="908" height="264" viewBox="0 0 908 264" fill="none" xmlns="http://www.w3.org/2000/svg">
<path d="M382.785 13.2278C404.633 13.184 415.568 11.6719 436.268 19.8167L435.478 20.7122C436.027 21.2361 436.228 21.3938 437.004 21.4231C440.065 21.54 443.093 25.2433 445.326 27.2092C457.549 37.8799 461.529 52.6674 459.767 68.4143C458.091 83.3823 448.004 93.6909 436.225 101.918C434.941 102.815 430.64 102.775 429.29 104.018C429.304 111.378 463.141 148.155 459.129 153.924C454.165 154.914 435.01 154.43 429.219 154.389C420.784 144.311 413.592 132.66 405.878 122.024C403.506 118.752 398.36 110.799 395.733 108.57L380.869 108.483C379.375 108.54 376.388 108.406 375.357 109.238C373.393 115.933 376.545 148.712 374.074 153.69L372.657 152.948L371.646 154.352C369.838 155.206 347.161 155.062 344.934 153.928C343.508 152.053 342.94 151.903 342.797 149.655C342.347 142.589 342.499 135.203 342.497 128.117V88.5003L342.513 42.8274C342.516 35.2877 342.193 24.0788 342.836 16.8128C344.268 15.5351 344.522 15.2369 344.987 13.3772L345.025 13.218L382.785 13.2278ZM424.452 48.3059C413.849 38.2791 392.708 41.0871 378.921 40.759C376.313 40.6945 374.609 40.71 372.014 40.928C371.992 46.0964 371.568 77.9558 372.358 80.9866C373.507 81.4329 373.677 81.4444 374.899 81.4514C390.51 80.3137 411.081 84.6912 424.286 73.9094C430.812 68.3687 430.434 53.9625 424.452 48.3059Z" fill="white"/>
<path d="M633.837 13.2069C638.736 13.1473 660.86 12.3234 663.749 13.9323C671.088 23.1664 678.182 32.6276 685.125 42.1593C698.328 60.2736 712.36 78.062 725.379 96.2881L725.433 95.7647C726.935 96.614 726.49 96.4101 727.325 98.3815C730.691 95.3634 729.471 80.9685 729.433 76.0597L729.336 42.495C729.33 35.2525 729.054 25.8119 730.013 18.7827C730.501 24.2684 730.252 32.8613 730.252 38.556L730.235 73.7585C730.235 75.9181 730.073 87.4392 730.479 88.9209L730.485 42.053C730.468 35.9966 729.645 18.7216 731.867 14.0154C733.72 12.4691 757.563 12.9933 761.384 13.341L761.617 13.3631C762.278 28.4776 762.424 45.6444 761.947 60.7954C760.999 91.1651 763.459 123.682 761.747 153.805C753.275 154.619 741.368 154.252 732.625 154.144C728.496 150.537 716.957 134.534 712.995 129.284C699.624 111.564 686.632 93.0996 672.974 75.5613C671.765 74.0091 665.879 65.747 664.99 65.1412C661.738 69.385 664.698 141.351 662.876 154.173C658.757 154.202 636.189 154.745 634.124 153.517C632.883 147.236 633.284 132.478 633.278 125.34L633.273 76.8461L633.3 36.1333C633.305 30.2424 633.018 18.4834 633.837 13.2069Z" fill="white"/>
<path d="M529.233 13.1569C540.024 13.113 552.88 12.7522 563.503 13.3112C580.608 57.3235 599.28 101.065 616.911 144.883C617.702 146.852 618.883 151.428 618.374 153.501C614.753 154.705 591.957 154.268 586.955 154.056C585.53 150.581 578.652 135.296 578.44 132.775C557.59 133.061 534.777 132.2 514.192 133.063C513.406 133.8 512.247 138.541 511.288 140.396L511.32 139.444C510.583 141.893 507.597 153.371 504.708 153.741C500.394 154.293 477.295 154.911 474.573 153.389C473.267 147.191 484.833 122.433 487.581 115.64L514.583 49.36C518.507 39.8033 526.025 22.6198 529.233 13.1569ZM546.993 55.609C541.28 64.5675 534.923 82.5548 530.484 93.3854L530.512 92.8737C528.631 96.7439 527.373 101.202 526.072 105.325L525.666 107.283C527.292 108.495 564.76 108.586 566.732 107.648C566.917 106.771 567.107 106.166 566.966 105.265C561.139 89.9479 551.562 70.9096 546.993 55.609Z" fill="white"/>
<path d="M871.825 12.6924C881.961 12.7104 892.801 12.5556 902.855 13.1416C902.909 14.5713 903.082 16.9279 902.491 18.386L900.806 18.871C898.676 21.8982 895.348 25.4923 892.974 28.0929L868.21 55.7432C863.419 61.0485 855.614 69.0236 851.913 74.5382C860.183 83.866 873.088 102.897 881.045 113.602C888.622 123.794 901.115 139.724 907.586 149.829C907.624 151.582 907.803 150.936 906.854 152.425C902.437 155.499 881.028 154.204 874.199 154.109C860.975 135.307 843.3 114.279 831.089 95.3485C826.921 99.3082 822.629 103.989 818.629 108.185C816.39 110.406 815.344 111.68 813.426 114.196C813.041 124.917 813.263 135.748 813.735 146.452C813.968 151.368 811.117 154.012 806.331 154.212C798.792 154.526 791.047 154.184 783.502 153.998C782.576 147.432 782.852 136.773 782.857 129.903L782.874 91.9366L782.852 42.5333C782.852 33.7094 782.511 21.7236 783.242 13.1928C791.399 13.0868 803.627 12.4519 811.843 13.8047C814.076 14.1725 813.03 27.3422 813.296 29.6407C814.239 37.7347 811.8 70.3443 813.784 75.5345C815.908 76.0562 819.756 69.8822 821.382 68.0203L851.1 34.5017C854.802 30.31 867.912 14.403 871.668 12.7586L871.825 12.6924Z" fill="white"/>
<path d="M245.768 41.1327C239.868 41.8047 232.613 46.0171 228.105 49.6844C219.03 56.9562 213.313 67.6187 212.277 79.2064C210.992 91.1109 214.538 103.033 222.117 112.299C237.153 130.548 264.249 132.633 283.225 119.24C285.345 117.744 291.269 109.679 292.856 109.246C298.761 107.637 317.329 107.771 322.779 108.822C325.263 112.611 320.077 120.253 317.857 123.704C282.851 178.11 198.805 163.784 184.419 100.062C175.487 60.4999 199.485 21.6831 238.95 12.2599C258.019 7.81746 278.071 11.0988 294.733 21.3886C306.452 28.6002 319.236 42.2353 323.592 55.9566C324.07 57.4606 323.678 58.081 322.972 59.1462C320.57 60.0638 297.634 60.3453 293.585 59.1353C290.999 58.3625 287 51.7242 283.367 48.9772C276.651 43.8992 272.483 42.2657 264.374 40.823C257.965 40.7428 252.188 40.6397 245.768 41.1327Z" fill="white"/>
<path d="M98.3064 97.249C86.7674 111.382 68.3293 116.074 56.0646 100.125C51.8566 94.7428 50.0154 87.881 50.9634 81.1137C51.8875 74.5746 55.3866 68.6766 60.6818 64.7337C72.5829 55.8539 88.0768 58.5792 96.8126 70.4842C104.337 70.6415 143.858 69.6577 147.494 71.0846C148.216 71.9876 148.886 73.0338 149.938 73.4259L150.231 75.8084L151.892 75.6018C154.078 78.0993 152.986 83.0428 153.176 86.152C153.529 91.9389 150.448 96.0867 149.84 101.154C148.093 117.303 134.887 135.279 122.185 144.962C102.099 160.277 82.0715 162.33 57.6548 159.08C57.5025 158.927 57.3464 158.777 57.1871 158.632C55.2137 156.834 53.5291 156.931 51.0186 157.047C49.2756 158.483 48.3721 164.334 46.0643 166.523C39.8308 172.617 30.8332 162.916 24.8388 160.619C20.3392 158.895 18.0666 154.667 20.6909 150.388C26.2236 141.369 30.6294 131.09 37.0911 122.758C38.0591 121.509 39.5842 122.393 40.762 122.805C50.8772 128.334 58.1724 134.4 70.3445 135.174C85.7706 136.075 98.8532 132.293 110.4 121.636C113.829 118.471 127.154 104.498 121.871 98.7621C119.49 96.1773 102.862 97.1904 98.3064 97.249Z" fill="white"/>
<path d="M107.319 0.0935147C108.192 0.0127595 111.095 -0.118109 111.811 0.222539C117.707 3.02847 126.934 8.37307 131.939 12.2149C131.182 23.3949 123.315 32.5204 118.102 42.1492C114.207 49.3445 109.092 45.6891 103.678 42.0234C83.8609 28.6058 55.8279 32.7504 39.4164 49.6228C27.5034 61.9492 25.246 74.8684 25.5002 91.3118C25.5729 93.2523 25.5311 95.1255 23.5718 95.9987C19.8245 98.1459 3.1772 98.366 1.01031 94.5008C-1.10346 90.7309 0.57997 71.533 1.71599 67.4133C14.3878 21.4506 55.2952 0.112552 100.798 12.3938C102.315 9.1483 104.46 4.51927 106.944 1.94622C107.172 1.70938 107.257 0.527011 107.319 0.0935147Z" fill="white"/>
<path d="M576.191 206.34C583.801 222.221 598.337 245.885 607.415 261.823L607.827 253.649L607.708 211.101C610.358 211.022 613.242 211.089 615.908 211.098C621.583 211.034 627.258 211.034 632.927 211.097C637.225 218.641 641.019 227.435 644.504 235.437C650.108 229.145 652.813 219.153 657.273 211.044C663.132 211.012 677.05 210.637 682.216 211.297C683.424 212.694 683.094 215.233 682.974 217.153C683.245 232.303 682.823 247.558 683.186 262.674L664.173 262.682C664.135 258.479 663.815 246.443 664.427 242.84L663.82 240.803C661.365 242.913 655.501 258.352 652.769 262.747C647.534 263.058 643.171 263.069 637.913 263.003C634.488 256.017 630.136 244.725 626.911 238.902C626.623 246.541 626.905 255.335 626.477 262.594C612.965 262.662 599.453 262.644 585.942 262.541C581.654 256.596 567.964 232.956 564.517 225.733C566.349 221.879 573.422 209.508 576.191 206.34Z" fill="white"/>
<path d="M735.726 215.792C735.845 218.92 735.932 221.647 735.84 224.794L729.646 224.705C721.96 224.594 710.98 224.485 707.391 224.985C707.732 225.994 707.943 227.393 708.908 227.562C716.377 228.872 728.788 228.344 736.197 228.257C736.214 231.405 736.094 238.356 736.593 241.128L736.122 242.946C733.575 244.197 711.934 243.869 707.792 243.815C708.003 245.771 707.813 247.429 708.881 248.718C714.117 250.143 733.867 247.41 736.154 249.271L736.544 250.493C736.202 254.203 736.149 257.934 736.382 261.653L735.889 262.399C731.986 263.219 691.201 263.433 689.201 262.237L688.914 259.783C689.673 246.342 689.012 225.112 689.028 211.155C704.269 211.048 720.783 211.511 735.851 210.966L735.726 215.792Z" fill="white"/>
<path d="M797.578 211.079L800.093 211.021C815.491 211.352 830.987 210.846 846.282 211.128C846.319 213.941 846.899 222.913 845.507 224.535L844.851 224.552C836.612 224.97 825.236 224.215 817.935 224.931C818.271 225.94 818.51 227.425 819.475 227.597C826.764 228.901 839.404 228.339 846.531 228.281C847.382 232.482 846.926 239.404 846.417 243.645C843.111 243.678 820.77 243.389 819.225 244.355C819.453 245.859 819.182 245.342 820.504 246.358C826.125 247.514 842.336 244.571 846.395 248.732L846.233 260.268L846.319 262.875C842.948 263.789 800.922 263.301 797.773 262.222C796.494 259.384 796.928 230.047 796.884 224.72L794.543 224.53C794.727 220.286 794.657 215.851 794.657 211.587L797.144 211.451L797.578 211.079Z" fill="white"/>
<path d="M852.021 211.03C858.536 210.986 865.056 211.004 871.576 211.084L871.522 224.526C875.029 220.801 881.039 213.987 884.866 211.192C890.822 210.704 899.391 210.995 905.358 211.291C899.001 217.779 892.258 224.294 886.736 231.45C891.5 237.617 897.608 247.052 902.139 253.615L907.89 262.424C900.21 262.714 892.41 262.586 884.719 262.539C882.221 259.009 876.389 248.117 873.907 246.546L872.936 246.768C871.04 249.837 871.576 258.592 871.625 262.599L851.858 262.654C852.52 246.661 852.2 227.172 852.021 211.03Z" fill="white"/>
<path d="M744.68 208.924C759.325 208.111 774.262 208.461 788.939 208.39C796.354 208.354 793.264 210.385 797.579 211.079L797.145 211.451L794.657 211.587C794.657 215.851 794.728 220.287 794.544 224.53C791.633 224.652 779.373 224.924 776.566 224.556L776.663 228.068C776.734 239.58 776.658 251.186 776.842 262.679C773.357 263.392 760.718 263.42 757.412 262.25C755.65 260.143 756.555 230.253 756.599 224.919C752.854 224.874 743.157 225.267 740.371 224.587C738.854 223.901 738.767 224.233 736.941 224.598L735.84 224.794C735.932 221.646 735.846 218.919 735.727 215.791L735.851 210.965C741.369 211.189 739.157 208.074 744.68 208.924Z" fill="white"/>
<path d="M554.543 244.7C561.074 244.415 567.611 244.257 574.147 244.225C572.749 248.617 568.424 255.684 566.017 260.069C563.763 264.372 549.693 262.773 544.793 262.633C545.47 261.128 546.343 259.482 547.091 257.991C549.638 253.645 552.327 249.214 554.543 244.7Z" fill="white"/>
</svg>
