<svg width="896" height="214" viewBox="0 0 896 214" fill="none" xmlns="http://www.w3.org/2000/svg">
<path d="M723.647 53.0801C754.855 50.0444 782.606 72.9071 785.6 104.12C788.592 135.333 765.692 163.053 734.474 166.003C703.317 168.948 675.664 146.101 672.677 114.948C669.69 83.7956 692.497 56.1097 723.647 53.0801ZM732.284 145.844C738.817 144.975 744.231 143.162 749.509 139.04C765.984 126.174 765.573 92.5961 749.233 79.8406C743.429 75.3091 733.721 72.1158 726.335 73.0331C704.622 75.1408 694.797 94.453 696.782 114.574C698.745 134.482 712.144 147.039 732.284 145.844Z" fill="white"/>
<path d="M460.464 55.3886L498.232 55.3483L514.531 55.3348C521.828 55.3301 528.956 54.8801 535.964 57.0841C543.287 59.3651 549.163 63.5333 552.697 70.4732C560.64 86.0717 555.882 103.281 540.263 111.545C543.861 112.346 547.339 114.026 550.004 116.605C551.984 118.493 553.413 120.887 554.136 123.529C554.917 126.446 554.982 133.594 555.082 136.948C555.306 145.757 555.469 154.568 555.572 163.38C548.125 163.381 540.625 163.579 533.152 163.608L532.975 160.635C532.516 150.663 533.087 139.883 531.989 129.973C531.653 126.947 527.408 122.932 524.437 122.478C519.795 121.768 514.54 121.997 509.726 121.988C500.84 122.034 491.958 121.971 483.075 121.801C482.876 135.655 482.849 149.511 482.988 163.366C475.805 163.908 468.188 163.489 460.893 163.775C460.291 158.402 460.434 152.845 460.443 147.435L460.469 126.443L460.464 55.3886ZM482.844 103.331L511.362 103.337C513.803 103.319 516.254 103.293 518.695 103.226C523.232 103.102 526.398 103.347 529.863 99.8395L530.003 99.6955C536.878 91.4687 534.236 75.4508 522.106 74.9694C509.124 74.4544 496.017 74.9133 483.012 74.7679C483.054 84.2892 482.998 93.8106 482.844 103.331Z" fill="white"/>
<path d="M599.188 55.4895C600.638 55.2297 604.57 55.3001 606.196 55.3101C609.761 55.341 613.324 55.3522 616.889 55.3443L660.33 55.359L660.316 74.803L621.596 74.7943L610.607 74.7852C605.087 74.752 600.271 73.9541 596.358 78.7556C590.996 85.3374 593.595 95.1978 601.801 97.9217C605.458 99.1359 609.509 99.0098 613.317 99.3643C626.926 100.639 643.134 99.4357 654.335 108.548C666.971 118.963 667.001 142.003 656.638 154.005C650.802 160.763 642.986 162.714 634.416 163.378C614.254 163.727 594.088 163.845 573.925 163.734C573.532 156.596 573.568 151.229 573.664 144.022C585.63 144.412 597.524 144.247 609.505 144.197C616.987 144.2 623.967 144.378 631.483 143.916C642.199 143.256 644.885 127.196 636.014 122.33C633.412 120.903 629.457 120.474 626.374 120C611.373 117.696 593.63 120.297 580.66 110.971C567.974 101.369 567.617 78.4749 577.457 66.7392C583.318 59.7515 590.382 56.5343 599.188 55.4895Z" fill="white"/>
<path d="M343.941 55.315L366.247 55.2939L366.182 103.271C366.184 110.184 366.143 117.148 366.342 124.059C366.579 129.079 368.089 135.354 371.737 139.065C381.395 148.897 400.74 148.383 410.828 139.518C416.539 134.497 416.246 124.564 416.228 117.475L416.2 103.589C416.14 87.4902 416.209 71.3914 416.409 55.2939L438.856 55.3052L438.866 74.3552L438.891 101.65L438.798 119.337C438.694 132.503 438.815 142.887 428.71 153.178C418.701 163.159 403.945 165.137 390.473 165.416C370.822 165.823 349.155 157.746 344.942 136.13C343.177 127.072 343.753 114.885 343.739 105.391C343.695 88.6986 343.762 72.0062 343.941 55.315Z" fill="white"/>
<path d="M282.984 55.5044C285.689 55.1647 294.073 55.3379 297.082 55.3395L325.344 55.3694C325.444 61.9472 325.417 68.622 325.442 75.2074C320.53 75.3923 315.614 75.4395 310.699 75.3492C305.676 75.2706 300.655 75.2364 295.631 75.247C291.531 75.2748 287.191 75.3408 283.144 75.9374C261.531 79.1231 253.533 100.01 257.959 119.695C261.759 136.601 275.779 144.269 292.163 143.824C295.28 143.739 298.764 143.824 301.899 143.818L325.365 143.821L325.442 163.485C316.511 163.749 307.576 163.833 298.641 163.735C281.177 163.664 266.055 164.555 251.461 152.407C240.265 142.999 235.053 130.481 233.816 116.151C230.958 83.0626 249.179 58.3532 282.984 55.5044Z" fill="white"/>
<path d="M96.2715 0C115.297 11.3066 134.926 22.4134 154.102 33.4902L170.862 43.1738C174.171 45.0881 185.778 51.1582 186.347 54.7959C187.145 59.8983 186.867 67.9991 186.857 73.4023L186.805 105.68L186.843 138.623C186.852 144.612 187.139 153.555 186.32 159.271C185.298 160.6 183.976 162.098 182.554 163.004C177.5 166.222 172.156 169.203 166.965 172.19L138.859 188.393L112.775 203.523C107.181 206.782 99.4353 211.677 93.6006 213.841C87.9306 212.399 78.8273 206.513 73.4375 203.366L54.6787 192.516L22.7949 174.085C15.063 169.586 6.98024 165.273 0 159.691V53.9385C4.73877 49.2307 11.503 45.6753 17.3213 42.3203L32.6387 33.4404C51.8945 22.1823 71.2152 11.035 90.5996 0H96.2715ZM22.9893 56.584C19.356 56.5751 14.996 56.2521 11.4219 56.5645L8.28711 56.8115C12.7439 60.4655 15.6374 61.5987 20.5088 64.3486C24.6261 66.6726 28.8915 69.2317 32.9883 71.625C52.9786 83.0835 72.8794 94.6977 92.6885 106.467C93.9268 115.164 93.3929 126.002 93.3887 134.984L93.3848 180.93C93.3824 187.504 93.0125 198.897 94.125 204.815C98.6402 198.466 101.616 192.647 105.542 186.032C111.991 175.168 118.126 163.743 124.618 152.952L159.907 91.6309L169.288 75.2686C173.156 68.5416 175.938 64.3984 178.531 56.9619C166.469 56.1779 153.017 56.5346 140.782 56.5342L80.3613 56.5195L33.2803 56.5391C29.8446 56.5416 26.4262 56.5921 22.9893 56.584Z" fill="white"/>
<path d="M800.2 55.3263L844.336 55.353C852.092 55.3436 860.39 55.1321 868.118 55.5715C871.393 55.7575 876.442 57.1583 879.456 58.5179C889.421 63.0128 892.363 69.7627 896 79.2855V91.6886C893.265 100.196 888.174 106.774 880.484 111.287C888.804 114.625 893.641 118.473 894.382 127.862C895.314 139.707 894.424 151.593 895.221 163.4C887.34 163.622 880.328 163.827 872.412 163.527C871.827 155.888 872.426 147.117 872.153 139.379C872.083 137.353 872.125 132.478 871.705 130.636C871.23 128.523 870.188 126.578 868.691 125.013C866.321 122.567 864.041 122.19 860.819 122.104C848.094 121.767 835.392 122.173 822.662 121.933C822.795 135.708 822.849 149.482 822.823 163.258C816.284 163.802 807.056 163.68 800.391 163.775C799.862 127.627 799.799 91.475 800.2 55.3263ZM822.609 103.261L848.099 103.258C853.4 103.254 859.346 103.554 864.565 102.649C866.335 102.343 868.241 100.795 869.528 99.5411C875.68 91.8441 874.489 77.6336 863.311 75.1419C859.831 74.3657 852.609 74.7093 848.796 74.7138C840.11 74.7875 831.425 74.7873 822.737 74.7131C822.856 84.2291 822.811 93.7463 822.609 103.261Z" fill="white"/>
</svg>
