<svg width="1067" height="267" viewBox="0 0 1067 267" fill="none" xmlns="http://www.w3.org/2000/svg">
<path d="M0 4.34769C0.662507 2.65446 0.605809 2.57478 1.73344 1.18516C8.18911 -0.838964 13.8014 -0.132683 20.0102 2.26038C21.9869 3.02266 21.5398 4.3204 23.243 5.66408C25.6225 5.97129 27.9961 6.22395 30.3397 6.72927C43.826 9.44174 62.0359 20.6835 73.1206 29.0801C97.6721 47.2204 114.966 82.2371 120.116 112.316C120.422 114.103 120.382 114.806 120.964 116.615L122.282 116.543C123.603 104.259 127.423 87.858 132.85 76.7619C136.509 68.1515 142.537 56.4094 149.022 49.6221C153.311 45.1863 157.036 39.9501 161.505 35.4906C170.767 26.2492 180.821 20.3534 192.247 14.4978C201.208 7.91216 204.778 7.04291 215.875 5.72651C217.776 4.69578 219.627 2.2094 221.63 1.79381C230.397 -0.0264694 239.861 0.544185 248.792 0.407807C251.827 0.36187 255.873 0.665499 258.583 1.83547C259.942 2.42261 259.716 3.45116 260.119 4.96567C278.611 6.95893 286.384 10.4444 302.502 20.6448C303.738 21.4279 309.584 25.0964 310.265 25.8372C332.882 39.7017 357.745 80.8611 360.231 107.135L361.127 116.156C362.455 117.476 363.001 117.656 364.756 118.331C366.288 123.958 366.529 143.539 363.838 149.582C363.65 150.006 361.514 152.073 360.982 152.576C359.739 174.001 349.61 197.939 337.218 215.216C323.873 233.72 292.049 259.51 268.386 261.326C265.469 262.108 264.587 262.41 261.622 262.568C253.083 266.609 227.539 270.076 221.127 262.532C188.568 259.646 156.815 232.844 140.248 205.856C135.924 198.815 132.442 190.144 129.154 182.507C125.188 170.19 123.48 160.421 121.171 147.745C119.478 160.091 117.416 166.45 113.985 178.588C108.583 196.367 91.8258 224.576 76.8444 235.924C61.4201 248.47 46.0583 258.562 26.0086 261.728C17.4771 266.372 11.3753 267.097 1.54968 266.659L1.27335 262.51C1.20013 256.761 1.04366 250.975 1.37814 245.24C0.260562 211.125 1.25539 171.704 1.28769 137.208C1.75927 104.399 1.79661 66.4798 1.16855 33.7492L1.50591 32.9747C1.18937 28.5676 1.31928 22.104 1.27335 17.5368L1.11544 4.82929L0 4.34769Z" fill="white"/>
<path d="M961.911 229.419H961.91H961.911ZM891.832 93.0165C907.271 49.6061 950.567 25.0953 995.694 34.7997C1080.46 53.0242 1090.46 181.926 1017.06 220.665C1009.89 224.455 1003.79 226.616 995.887 228.123C985.443 228.638 975.636 228.785 965.332 228.838L960.881 228.855C948.643 226.975 941.422 224.943 930.699 218.325C909.962 205.678 895.09 185.308 889.362 161.7C883.763 142.6 882.744 133.757 886.793 113.975C888.242 107.482 889.657 99.119 891.832 93.0165ZM975.265 58.4247C927.11 63.1599 910.328 100.99 914.893 144.962C916.609 161.463 925.186 180.922 938.293 191.388C949.526 200.295 963.451 205.104 977.785 205.025C1063.11 197.984 1056.53 59.0484 975.265 58.4247Z" fill="white"/>
<path d="M574.472 34.4039C584.356 34.4103 639.782 32.944 644.764 36.9283L645.784 38.8443C648.432 39.4723 651.562 40.1294 654.131 40.9253C686.747 46.0704 709.722 73.1395 715.601 104.711C719.412 119.68 719.377 132.686 717.668 148.04C717.496 154.571 717.367 151.068 714.833 155.784C712.213 174.589 698.684 196.927 684.048 208.232C658.782 227.763 629.454 227.102 599.307 226.234C594.655 226.098 578.478 227.598 575.104 225.653L574.315 222.085C574.013 220.614 574.271 215.008 573.632 214.211C573.072 213.522 572.017 213.651 571.457 212.682C570.108 210.347 569.857 41.2572 570.733 39.8628C572.585 36.9293 573.482 38.9101 574.472 34.4039ZM666.528 73.9078C648.992 60.9304 623.252 63.419 602.128 63.5992L602.1 155.483C602.1 164.168 602.739 189.878 601.892 197.789C601.985 198.557 601.892 200.853 602.739 200.983C614.718 202.907 632.549 202.541 643.861 198.09C672.543 189.85 684.372 173.205 688.32 144.373C688.915 141.121 689.03 140.345 690.243 137.331L690.358 138.07C693.056 133.49 692.618 119.178 689.604 114.383C688.52 112.664 688.377 112.126 687.774 110.135L687.579 109.474C685.555 95.2967 677.983 82.5024 666.528 73.9078Z" fill="white"/>
<path d="M441.186 226.061C440.734 208.031 440.081 41.5082 441.661 38.8209C443.314 38.7297 443.347 38.7764 444.894 38.2395C445.106 36.5017 445.062 36.4207 445.717 34.82C451.141 34.1152 461.442 34.4066 467.261 34.4058L504.27 34.4317C514.116 34.4453 524.014 34.4812 533.855 34.5515C539.052 34.5896 550.909 32.9818 555.051 35.9067L555.474 38.9616C555.539 44.0614 556.565 59.3765 554.613 62.7788C552.955 63.241 552.919 63.2949 551.211 63.3035C545.691 63.414 539.798 63.6574 534.329 63.2561C519.011 64.1792 503.053 63.2138 487.668 63.5734C483.565 63.6696 478.537 63.7614 474.481 63.4585C476.146 75.4023 476.392 104.606 475.577 117.318L519.227 117.182C524.265 117.175 537.638 116.88 541.959 117.598C544.234 117.613 547.198 117.534 549.416 117.663L549.33 142.993C527.172 142.972 493.221 142.003 472.147 143.524C472.224 145.67 472.124 146.08 473.316 147.852C475.956 151.779 475.883 156.121 475.913 160.679L475.747 197.544C499.99 197.645 532.498 198.685 556.063 197.601C556.127 201.463 556.594 223.886 555.697 226.047L552.108 226.277C542.806 227.533 509.627 226.851 498.498 226.88C487.726 226.915 449.654 227.583 441.186 226.061Z" fill="white"/>
<path d="M772.658 38.588L773.132 35.5525C777.69 32.4797 874.367 35.5245 887.251 34.5354C887.761 34.4959 888.78 34.8749 889.354 35.0701C890.237 36.739 890.065 36.8122 890.058 38.7509C889.936 46.9472 889.921 55.1449 890 63.3412C886.605 64.5872 853.832 63.9111 847.687 63.9864C847.716 80.2584 848.29 224.038 847.192 225.724C846.008 225.961 845.125 226.155 843.926 226.291C836.016 226.004 825.817 226.349 817.742 226.399C816.974 172.846 817.627 117.276 817.706 63.6534C803.63 62.9729 787.487 63.7381 772.924 63.349C772.845 55.1592 773.247 46.7383 772.658 38.588Z" fill="white"/>
<path d="M738.018 34.6035C744.822 34.2762 757.053 33.7974 763.585 34.4269C765.064 36.0491 764.59 35.8847 764.848 38.5735C763.614 53.6633 764.604 86.4276 764.604 102.527L764.698 226.623C756.041 226.666 746.603 226.53 738.018 226.781C735.211 226.63 735.233 227.133 733.589 225.661C732.886 211.664 733.46 194.624 733.46 180.405L733.417 95.1694C733.417 88.1747 732.735 37.9541 734.63 34.9114L738.018 34.6035Z" fill="white"/>
</svg>
