<svg width="1121" height="186" viewBox="0 0 1121 186" fill="none" xmlns="http://www.w3.org/2000/svg">
<path d="M938.174 0.19043C939.811 3.36974 939.137 165.584 939.147 183.602L900.261 183.603V167.552C899.191 168.864 898.078 170.135 896.923 171.364C875.409 193.945 829.374 187.898 808 167.509C780.535 140.21 778.779 93.3082 805.109 64.4385C828.367 38.9326 872.572 35.2483 898.388 59.4688L898.346 17.9824L936.332 0L938.174 0.19043ZM869.48 152.606C913.139 144.365 908.912 72.852 858.328 76.3545C812.154 85.7273 819.528 157.901 869.48 152.606Z" fill="white"/>
<path d="M1120.34 1.67578C1121.56 12.0761 1120.71 48.7667 1120.71 60.6748L1120.75 183.602L1081.47 183.645C1081.55 178.079 1081.59 175.265 1080.82 169.799C1078.76 170.882 1075.15 174.083 1072.85 175.597C1062.79 182.203 1051.7 185.467 1039.69 185.609C1019.06 185.856 1003.72 181.164 988.735 166.974C961.303 138.373 960.062 91.3101 988.318 62.541C1011.46 38.9874 1055.78 35.4919 1079.87 59.9102L1079.83 19.2529C1092.88 12.9366 1105.29 6.95712 1118.6 1.18555L1120.34 1.67578ZM1062.74 81.0088C1054.15 75.8752 1048.42 75.9185 1038.84 76.4482C994.002 87.4724 999.931 157.078 1051.74 152.537C1074.74 147.163 1084.81 125.463 1079.32 103.41C1077.04 94.0161 1071.05 85.9391 1062.74 81.0088Z" fill="white"/>
<path d="M490.253 1.17285C491.314 5.30487 490.897 52.6353 490.895 59.7793C508.08 42.7471 536.862 39.0853 558.53 47.7207C617.525 71.2331 617.728 155.175 560.508 180.711C545.613 186.503 526.245 187.437 511.099 182.455C502.994 179.789 496.859 174.556 489.947 169.799C488.691 171.763 489.215 180.63 489.24 183.553L450.074 183.625L450.059 19.6143C463.31 13.9989 476.524 7.05467 490.253 1.17285ZM532.565 152.554C574.165 143.571 573.019 73.7157 519.682 76.4521C476.27 87.1606 479.847 156.173 532.565 152.554Z" fill="white"/>
<path d="M258.67 43.3926L260.497 43.5028C282.518 44.9144 291.077 49.7068 305.229 65.7715C306.584 64.2668 307.964 62.7846 309.369 61.327C337.57 32.1919 401.392 38.4825 409.419 81.4307C414.957 111.061 412.379 152.945 412.281 183.596L372.287 183.613C372.232 155.728 373.573 127.027 370.94 99.3951C370.037 89.9238 358.878 78.6685 349.676 77.8605C304.549 73.8954 314.406 133.915 314.571 163.078L314.612 183.588L273.717 183.658C273.834 156.503 274.774 128.455 272.942 101.545C270.965 88.1483 262.056 77.7674 248.436 77.9023C215.237 78.2308 216.363 109.671 216.717 134.078C216.953 150.489 216.829 167.254 216.914 183.583L176.032 183.622L176.076 45.3468L215.249 45.4025L215.433 60.8015C228.299 47.0195 240.902 44.6725 258.67 43.3926Z" fill="white"/>
<path d="M75.0056 43.4229C125.964 45.5793 149.879 76.3994 147.518 125.99L40.7263 126.049C54.145 160.1 90.0174 161.213 116.201 140.362C119.749 143.563 123.525 147.916 126.801 151.495L137.8 162.938C122.153 179.544 113.279 182.024 90.3933 185.097C20.871 194.431 -27.6652 126.001 17.5583 67.8691C31.2274 50.2987 52.5694 44.7574 75.0056 43.4229ZM109.934 102.003C103.202 79.8712 90.327 71.851 67.2732 74.1455C51.3426 78.4274 44.9155 86.6009 40.3591 101.957L84.2849 101.999L109.934 102.003Z" fill="white"/>
<path d="M696.182 43.5988C734.574 42.7181 765.956 70.0435 767.68 108.971C767.915 114.452 767.701 120.209 767.583 125.775C733.247 126.822 695.443 125.967 660.668 126.142C672.302 153.157 696.042 159.991 723.218 149.006C727.788 147.159 732.433 143.537 736.907 141.02L738.834 142.031C744.785 149.62 751.421 156.642 758.667 163.006C747.45 173.694 739.219 179.899 723.411 183.267C681.968 192.393 631.116 176.753 622.5 129.736C614.365 85.2998 639.111 52.576 682.695 44.2756C687.34 43.8839 691.568 43.7048 696.182 43.5988ZM730.058 101.934C722.62 79.2189 710.674 71.7879 686.731 74.2599C672.507 78.347 664.115 87.7061 660.561 102.039L704.006 102.001L730.058 101.934Z" fill="white"/>
</svg>
