<svg width="1200" height="444" viewBox="0 0 1200 444" fill="none" xmlns="http://www.w3.org/2000/svg">
<path d="M23.1465 0H336.907L336.942 81.4535L117.732 81.382L117.788 177.3L252.119 177.365C278.595 177.364 306.14 177.743 332.547 177.204L332.479 258.677C317.437 258.28 301.993 258.331 286.939 258.465C230.613 258.967 174.043 257.758 117.741 258.586L117.758 443.586C87.6223 443.121 53.4009 442.904 23.317 443.537C22.9031 437.154 22.9859 430.277 23.053 423.852C23.3186 398.421 22.6941 372.835 23.1836 347.418C15.5447 339.602 7.81635 331.874 0 324.234V323.699C11.7656 313.014 27.8652 295.825 39.5088 284.255C35.9299 280.097 29.966 274.503 25.8737 270.405L0 244.506V243.991C12.3333 230.99 26.7761 217.017 39.5702 204.408C27.2392 191.427 12.7465 177.502 0 164.817V164.237C4.34928 159.059 11.5611 152.218 16.4854 147.282C23.9656 139.784 31.9112 131.624 39.6979 124.53C34.2299 119.095 28.7991 113.621 23.406 108.111C22.5038 99.7448 23.0437 79.8468 23.0446 70.8262L23.1465 0ZM39.1564 101.181L62.6971 124.472C49.4439 137.714 35.9729 151.477 22.5714 164.517C35.8247 177.625 49.2775 191.557 62.6279 204.417L22.5333 244.423C34.3993 254.492 50.9999 272.565 62.7668 284.025C50.7616 296.078 34.8009 313.024 22.6179 323.91C27.5474 328.794 34.7332 335.5 39.1835 340.543C39.9884 368.525 39.3702 399.15 39.3546 427.329C45.2261 426.825 54.7074 427.124 60.801 427.133C74.342 427.213 87.8836 427.194 101.424 427.076L101.408 242.417L232.324 242.504L316.281 242.47C316.07 228.429 315.578 207.182 316.286 193.365L101.413 193.448L101.382 65.0249L320.545 65.0888C320.552 49.1457 320.899 31.8254 320.425 15.9917L39.4887 16.0224C38.8621 44.3261 39.7752 72.9548 39.1564 101.181Z" fill="white"/>
<path d="M748.91 121.364C775.388 121.652 807.322 122.129 833.636 121.275L833.73 226.335C833.724 286.891 840.381 359.211 794.625 406.156C775.101 426.185 748.136 436.758 720.966 441.044C714.216 442.109 702.843 442.78 697.125 444H667.049C661.605 442.895 656.203 442.563 650.713 441.859C618.006 437.657 585.746 424.789 564.568 398.562C527.911 353.165 532.146 292.52 532.135 237.811L532.129 121.318C560.496 121.562 588.861 121.582 617.232 121.375C616.67 158.083 616.728 195.829 617.068 232.777C617.426 271.383 610.752 325.396 638.537 355.873C658.951 378.269 705.597 378.614 726.468 356.569C745.418 337.595 748.705 308.899 748.898 283.349C749.549 229.657 747.972 174.898 748.91 121.364ZM817.371 137.464L765.433 137.521L765.381 240.245C765.386 265.879 766.775 293.226 762.609 317.896C755.332 360.982 726.92 390.184 681.838 388.528C595.125 385.342 599.959 301.452 600.943 238.846C601.459 205.873 600.644 174.104 600.996 142.186L601.06 137.484C585.19 137.486 564.058 138.059 548.546 137.45L548.641 235.153C548.632 287.578 543.432 355.959 584.186 395.762C629.191 439.714 738.17 439.721 782.906 394.681C819.539 357.804 817.371 300.819 817.365 252.827L817.342 177.19C817.336 164.459 816.984 150.05 817.371 137.464Z" fill="white"/>
<path d="M871.629 121.983C872.801 122.081 874.072 122.125 875.25 122.142C905.549 122.551 935.895 121.997 966.193 122.329C970.055 126.688 984.387 148.943 988.272 154.742C1003.19 176.793 1017.98 198.924 1032.66 221.133C1038.85 209.821 1051.68 192.187 1059.15 180.785L1083.06 144.56C1087.68 137.577 1093.29 128.598 1098.36 122.087C1119.35 122.907 1141.02 121.916 1162.09 122.277C1172.19 122.45 1183.07 122.473 1193.1 122.003L1124.15 222.155C1112.74 238.724 1097.12 262.931 1085.17 278.292C1099.52 298.007 1113.82 319.146 1127.81 339.202L1200 442.845V444H1106.47C1103.98 441.774 1090.6 421.195 1087.81 417.089L1032.54 335.243C1018.45 357.275 1001.58 380.803 986.783 402.583L969.047 428.782C966 433.271 961.641 440.038 958.295 444H956.449C953.057 443.187 933.316 443.465 928.342 443.469L865.031 443.443C868.078 437.697 875.561 427.435 879.398 421.88L905.9 383.479L951.188 317.753C960.123 304.786 969.27 291.039 978.586 278.459L907.553 174.829C896.402 158.548 881.9 138.538 871.629 121.983ZM950.209 427.366C972.791 392.284 997.688 358.221 1020.74 323.396C1024.43 317.815 1028.46 311.907 1032.45 306.557C1035.56 309.948 1040.14 317.224 1042.89 321.311L1059.09 345.386L1114.26 427.191L1155.03 427.153L1169.28 427.135C1134.73 377.875 1100.43 327.309 1065.52 278.465C1071.8 268.31 1080.33 256.589 1087.2 246.643L1126.11 190.261L1149.57 156.192C1152.35 152.164 1159.39 141.581 1162.41 138.377C1145.59 138.355 1122.93 139.001 1106.71 138.27C1099.72 149.972 1090.18 163.578 1082.51 175.118L1032.73 250.035C1010.11 219.049 989.883 184.895 967.729 153.44C964.377 148.68 960.715 143.236 957.639 138.285C940.266 138.29 919.049 138.851 901.975 138.239C911.156 150.686 920.303 164.563 929.115 177.428L974.408 243.547C981.686 254.174 990.762 268.308 998.397 278.392L932.766 373.422C920.643 391.003 907.172 409.763 895.5 427.496C898.582 426.926 915.885 426.964 919.752 427.106C928.436 427.424 941.906 426.589 950.209 427.366Z" fill="white"/>
<path d="M390.442 0H475.358C475.96 16.6276 475.458 35.55 475.448 52.4162L475.442 149.288L475.425 443.691C449.752 442.465 416.729 443.434 390.479 443.501C389.74 422.595 390.347 397.734 390.347 376.579V248.847V87.4932C390.34 58.7164 389.844 28.6529 390.442 0ZM406.748 427.077C412.575 427.102 456.708 427.815 459.238 426.871L459.167 168.958C459.169 118.694 458.348 66.0957 459.204 16.0022C442.435 16.037 423.249 16.5408 406.675 15.9713L406.748 427.077Z" fill="white"/>
</svg>
