<svg width="1023" height="1086" viewBox="0 0 1023 1086" fill="none" xmlns="http://www.w3.org/2000/svg">
<path d="M741.205 0.278529C743.285 0.0303971 746.15 -0.41297 747.952 0.88192C759.705 9.311 760.317 102.09 760.795 119.246L762.241 161.39C762.542 171.624 762.397 183.584 763.765 193.668C764.071 195.936 765.189 196.73 766.958 197.77C769.144 197.854 771.497 196.397 773.015 194.939C787.722 180.8 799.853 166.509 816.406 154.116C839.139 136.792 864.52 122.89 891.357 112.973C896.58 111.042 915.626 100.005 914.78 113.808C914.708 115.019 912.583 117.907 911.365 118.371C898.75 123.166 886.09 127.669 873.848 133.474C850.119 144.766 827.698 158.617 806.984 174.78C798.179 181.622 790.008 189.335 780.992 195.96C778.183 198.023 775.585 200.276 773.549 203.128C779.406 216.623 791.204 231.934 789.941 247.025C788.534 260.967 771.513 263.972 762.241 271.892C754.098 278.208 755.661 288.848 761.93 295.907C766.018 300.937 773.933 302.888 780.491 302.987C794.185 303.194 809.148 306.441 822.647 306.185C831.219 306.022 841.687 302.315 850.52 301.845C856.516 301.527 862.089 301.875 868.068 302.404C879.21 303.394 876.367 297.314 881.184 293.097C883.109 292.348 884.394 292.605 886.274 293.303C890.99 295.053 897.999 299.816 899.946 304.557C900.563 306.063 900.607 308.004 899.84 309.464C897.37 314.196 883.348 310.954 877.14 312.976C864.926 316.954 858.418 328.803 845.107 331.488C819.054 336.74 781.069 307.038 746.472 314.972C741.055 316.213 736.015 318.778 733.106 323.698C726.326 335.171 733.974 369.76 735.186 383.459C736.41 397.351 736.555 411.36 736.566 425.295C736.577 434.697 735.081 468.254 737.083 474.521C740.087 483.914 753.425 493.298 760.673 500.129C772.815 511.564 784.746 523.275 795.192 536.306C801.422 544.075 806.472 552.758 813.113 560.189C821.596 569.673 837.215 579.679 840.152 592.689C840.585 594.625 840.574 596.783 839.312 598.441C838.372 599.67 836.731 600.699 835.19 600.894C831.903 601.316 829.973 600.104 827.542 598.051C814.977 587.405 805.805 572.854 796.115 559.772C790.458 552.135 784.218 544.759 777.832 537.715C761.234 519.395 739.136 503.686 724.746 484.313C718.311 475.641 714.161 466.629 712.442 455.919C709.789 439.364 715.963 429.358 718.683 413.915C720.035 406.238 719.707 398.654 719.189 390.927C715.952 386.522 708.282 381.555 703.081 384.724C697.524 388.112 692.919 400.364 689.982 406.168C678.707 428.465 664.318 448.799 649.762 469.024C646.335 473.787 641.919 480.014 637.525 483.772C626.878 492.876 614.219 501.447 602.85 509.74L531.558 561.279C522.586 567.732 511.084 575.535 502.685 582.688C499.37 586.07 497.117 591.894 495.938 596.366C490.908 615.494 472.909 608.397 462.767 624.205C452.931 639.534 444.709 655.587 435.962 671.601C419.066 702.861 402.909 734.515 387.501 766.537C379.74 782.417 371.255 798.32 364.272 814.545C361.81 820.268 360.703 826.648 358.793 832.578C356.027 841.16 350.268 837.634 345.821 843.613C336.365 856.323 305.024 909.348 295.695 913.753C293.23 914.915 290.086 915.227 287.536 914.142C285.905 913.453 284.842 912.223 284.302 910.555C283.71 908.725 284.435 906.383 285.269 904.748C288.617 898.195 294.088 892.071 298.514 886.198C309.5 871.619 321.41 857.135 331.271 841.75C334.718 834.953 334.609 830.008 337.455 824.373C339.772 819.784 346.514 814.589 349.532 809.238C362.716 785.883 375.745 762.004 388.188 738.27C402.011 711.36 415.484 684.277 428.606 657.022L444.824 623.56C449.842 613.214 455.885 599.136 463.431 590.553C469.543 584.407 478.814 582.811 486.709 579.768C502.868 573.55 514.599 560.028 526.903 548.152L567.324 508.475C582.82 493.052 598.556 476.018 617.389 464.629C624.598 460.267 631.317 458.154 637.869 452.301C644.244 446.601 643.371 442.593 643.96 434.726C640.979 435.205 638.715 435.029 635.956 436.547C631.206 439.16 626.99 442.79 622.651 446.017C617.729 449.68 612.617 453.116 607.533 456.551C591.063 467.675 573.876 477.657 557.845 489.45C548.006 496.686 539.351 506.015 528.46 511.628C521.791 515.064 514.905 517.156 507.568 518.62C501.695 519.792 453.389 524.312 450.046 522.685C448.842 522.099 448.202 521.064 448.052 519.763C447.659 516.347 448.638 512.013 449.582 508.721C455.205 489.098 468.767 490.237 477.885 476.632C483.555 468.173 480.672 457.469 486.364 448.188C491.361 440.04 498.385 432.949 503.803 424.986C511.401 413.822 513.203 406.26 523.065 395.199C527.67 390.035 532.515 384.95 537.543 380.203C541.754 376.232 547.033 372.342 550.509 367.716C551.454 366.455 551.738 365.753 551.549 364.212C548.089 361.68 520.673 365.549 513.642 365.818C470.078 367.338 426.499 368.445 382.914 369.138C366.67 369.504 350.422 369.282 334.213 369.736C331.894 369.801 327.019 370.836 325.088 371.933C316.438 376.849 306.897 385.43 298.94 391.784C274.04 411.67 249.549 431.794 224.482 451.465C216.714 456.395 204.052 470.35 195.573 472.791C185.213 475.774 163.315 473.566 152.199 473.337C144.911 473.186 131.193 473.785 126.472 468.958C125.422 465.16 128.331 463.909 131.294 462.264C143.22 462.316 158.39 465.567 169.889 463.395C178.718 461.728 191.668 453.925 199.757 449.14C227.498 432.731 259.959 412.887 283.808 391.152C288.68 386.774 293.166 381.984 297.215 376.836C303.719 368.596 309.075 356.929 319.579 353.798C325.867 351.923 336.908 352.141 343.639 351.895C367.453 351.027 392.269 352.756 415.968 350.923C431.516 349.803 446.99 347.817 462.317 344.973C479.822 341.553 492.766 337.372 511.067 336.346C519.333 335.893 527.615 335.68 535.897 335.708C547.984 335.746 560.221 335.767 572.296 335.858C587.103 335.971 591.675 326.586 600.714 316.414C609.93 306.107 619.075 295.738 628.152 285.307C638.754 273.022 652.181 255.597 666.821 248.527C691.851 236.436 694.104 238.609 681.439 212.803C678.819 207.467 676.538 201.971 674.608 196.347C677.5 184.38 682.145 183.447 690.483 192.964C693.459 196.362 697.619 204.811 702.692 202.314C705.384 196.259 692.797 184.711 694.955 177.891C696.529 172.905 700.55 171.628 705.161 173.653C709.127 175.394 709.711 176.611 711.263 180.577C709.684 189.689 709.372 195.108 710.151 204.295L715.307 208.15C720.619 201.03 718.427 197.472 722.115 192.232C727.55 184.502 742.896 191.875 750.205 190.793C752.012 190.526 752.797 189.158 753.942 187.621C755.7 149.902 752.007 110.893 748.653 73.3733C747.384 59.2224 746.639 45.1082 745.376 30.7754C744.537 21.1875 737.356 12.5619 738.112 3.57165C738.257 1.85659 739.803 1.21994 741.205 0.278529Z" fill="white"/>
<path d="M31.9127 959.269C37.8932 958.824 41.0403 958.785 46.8857 959.914C50.7715 960.665 58.018 964.77 60.3252 964.453L60.9988 962.395C63.2075 961.026 83.9669 961.766 88.1247 961.816L88.1419 1016.52C88.1647 1026.63 88.3477 1036.63 87.9411 1046.74C86.1935 1090.22 41.3018 1089.11 9.31274 1081.8C9.07746 1079.13 9.14532 1074.96 9.11639 1072.16C9.10749 1068.68 8.85664 1063.42 9.66872 1060.22C12.8353 1059.13 24.3619 1063.71 29.3813 1064.32C37.055 1065.25 47.2589 1065.9 53.8752 1061.12C59.9392 1056.73 60.1822 1047.71 60.9481 1040.87C46.8384 1050.4 33.0858 1054.51 16.8635 1045.38C9.08747 1040.53 3.41676 1031.5 1.80149 1022.65C-3.22233 995.106 0.886501 966.439 31.9127 959.269ZM42.8286 1028.71C50.8627 1028.82 53.6382 1028.19 60.4893 1023.38C60.2868 1009.44 60.3024 995.49 60.536 981.546C55.1239 979.91 53.0297 979.237 47.2016 979.393C29.4853 981.662 26.989 997.593 28.6404 1012.65C29.5765 1021.18 34.2438 1027.16 42.8286 1028.71Z" fill="white"/>
<path d="M810.945 959.285C829.951 957.744 840.631 964.775 846.349 982.858C858.652 1021.77 834.935 1071.34 788.891 1046.82L788.919 1077.77L788.869 1084.35C779.574 1084.47 770.274 1084.48 760.979 1084.37L761.046 961.816C768.594 961.265 781.081 961.655 788.991 961.655L788.93 970.76C796.127 964.892 801.784 960.976 810.945 959.285ZM788.958 985.144C788.946 1000.09 789.252 1016.26 788.857 1031.1C796.417 1032.88 801.823 1033.56 809.493 1031.12C815.167 1027.73 818.743 1022.99 819.828 1016.41C822.509 1000.19 822.515 979.504 800.927 980.383C795.883 981.428 793.385 982.413 788.958 985.144Z" fill="white"/>
<path d="M706.546 959.292C725.964 957.111 737.928 966.167 742.745 984.511C749.131 1008.79 744.492 1044.3 716.252 1052.17C705.373 1055.2 694.126 1052.19 684.725 1046.63C685.07 1055.96 684.798 1066.9 684.803 1076.35L684.798 1084.41C675.553 1084.49 666.309 1084.48 657.064 1084.38L657.087 961.734C666.337 961.634 675.592 961.595 684.842 961.617L684.837 971.056C691.895 964.982 697.196 961.111 706.546 959.292ZM684.837 985.267C684.826 999.829 685.232 1016.66 684.737 1031.03C692.129 1032.88 697.914 1033.6 705.423 1031.08C715.752 1025.95 717.754 1011.86 716.909 1001.51C715.779 987.637 711.68 979.772 696.946 980.412C691.456 981.413 689.526 982.392 684.837 985.267Z" fill="white"/>
<path d="M586.464 959.263C612.506 954.285 637.658 971.339 642.67 997.37C647.682 1023.41 630.667 1048.58 604.641 1053.63C578.56 1058.69 553.324 1041.63 548.295 1015.55C543.273 989.46 560.371 964.247 586.464 959.263ZM600.386 1033.97C612.723 1028.63 613.796 1017.55 613.635 1005.56C613.418 989.31 609.347 977.457 591.058 978.725C579.711 983.309 577.581 994.144 577.397 1005.18C577.13 1021.17 580.69 1036.6 600.386 1033.97Z" fill="white"/>
<path d="M449.62 927.136C458.939 926.83 468.267 926.896 477.581 927.336C477.148 941.497 477.503 957.428 477.509 971.722C489.695 960.092 511.095 952.366 525.624 966.066C536.109 975.955 534.168 998.477 534.162 1012.4L534.134 1051.29C525.24 1051.03 515.178 1051.31 506.201 1051.36C505.806 1042.05 506.156 1030.27 506.162 1020.76C506.1 1002.92 510.745 968.14 478.689 987.019C476.719 988.176 477.444 1008.11 477.45 1011.14L477.442 1051.28C470.497 1050.79 457.039 1051.3 449.603 1051.34L449.62 927.136Z" fill="white"/>
<path d="M203.632 959.38C216.93 957.227 241.064 959.18 251.112 969.114C261.057 978.953 258.914 996.297 258.933 1009.17L258.873 1051.22L230.995 1051.35L231.05 1042.2C225.747 1046.42 221.47 1049.99 214.87 1052.16C205.788 1055.18 195.883 1054.52 187.286 1050.31C176.561 1042.35 173.7 1034.11 174.826 1021.09C176.646 1000.06 198.176 995.34 215.439 993.86C218.896 993.56 228.675 993.677 231.013 991.774C231.447 989.872 230.792 987.286 229.812 985.689C220.777 970.983 192.329 980.756 182.188 985.717C182.019 978.18 182.097 970.638 182.424 963.107C188.774 961.505 197.176 960.175 203.632 959.38ZM207.835 1033.55C217.825 1036.02 222.814 1034.98 230.981 1028.66C231.065 1024.58 231.826 1012.2 230.284 1009.57C228.895 1009.26 228.96 1009.21 227.576 1009.45C216.901 1010.51 200.819 1010.93 202.884 1026.06C203.459 1030.28 204.451 1031.14 207.835 1033.55Z" fill="white"/>
<path d="M898.038 959.352C910.548 957.271 927.88 959.863 936.952 969.436C948.282 981.395 947.709 996.307 947.509 1011.6L910.136 1011.54C903.751 1011.5 892.837 1011.14 886.78 1011.78C883.443 1020.64 894.651 1031.78 903.489 1033.46C920.054 1036.62 930.638 1032.19 944.344 1023.62L945.707 1024.31C946.691 1027.97 946.046 1042.56 945.901 1046.91C924.798 1055.55 894.74 1058.17 875.061 1044.68C854.48 1030.57 853.368 994.878 867.34 976C875.144 965.454 885.395 961.171 898.038 959.352ZM885.812 995.056L903.901 995.123C908.979 995.106 915.687 995.278 920.638 994.984C919.102 983.759 915.264 974.303 901.687 976.573C890.546 978.269 887.27 984.41 885.812 995.056Z" fill="white"/>
<path d="M307.886 959.347C320.18 957.489 335.889 960.248 347.261 965.165C347.569 971.211 347.808 982.38 346.834 988.243C338.652 984.032 332.673 980.05 323.193 978.359C318.263 977.475 302.295 978.403 302.489 985.785C302.723 994.706 322.972 995.352 329.075 997.499C333.771 999.151 339.339 1000.76 343.307 1004.3C353.582 1012.62 353.332 1031.66 344.549 1041C336.233 1049.84 325.628 1052.9 313.9 1053.73C300.742 1053.83 286.064 1053.65 274.254 1046.94C274.111 1039 274.29 1030.76 274.364 1022.8C286.769 1029.36 292.487 1035.17 307.854 1034.84C327.606 1034.42 328.416 1021.15 308.674 1018.47C294.667 1015.8 277.312 1011.28 275.075 994.718C272.018 972.079 287.832 962.356 307.886 959.347Z" fill="white"/>
<path d="M392.724 959.341C407.101 957.795 418.303 959.892 431.726 964.787L431.725 988.638C424.062 984.166 418.104 980.317 409.171 978.57C403.223 977.408 387.521 977.68 387.587 985.873C387.656 994.695 408.68 995.318 414.79 997.743C419.819 999.746 424.545 1001.06 428.681 1004.99C439.035 1013.8 437.7 1032.18 428.841 1041.62C420.84 1050.15 408.95 1053.27 397.496 1053.75C382.077 1053.88 373.402 1053.39 358.996 1047.09L359.029 1022.63C370.107 1029.29 378.587 1035.17 392.449 1034.83C396.531 1034.84 404.951 1033.76 407.202 1029.79C412.492 1020.16 389.181 1017.46 383.33 1016.19C362.295 1011.62 352.316 992.192 364.38 973.286C369.713 964.926 382.815 960.904 392.724 959.341Z" fill="white"/>
<path d="M110.079 961.672C119.287 961.722 128.494 961.688 137.701 961.577C137.682 965.927 137.63 970.276 137.546 974.632C151.757 965.526 150.052 961.371 170.425 961.766L170.356 988.309C156.545 986.029 150.96 986.44 137.919 991.185C137.651 995.523 137.727 1000.52 137.693 1004.91L137.634 1051.35C128.821 1051.04 118.997 1051.28 110.108 1051.33C109.797 1047.17 109.814 1041.91 109.93 1037.73C110.631 1012.71 108.841 986.563 110.079 961.672Z" fill="white"/>
<path d="M963.094 961.655C972.122 961.494 981.561 961.705 990.622 961.777C990.366 965.871 990.433 970.955 990.377 975.127C1001.57 964.486 1007.65 961.449 1022.98 961.827C1023.02 970.655 1022.99 979.482 1022.9 988.315C1010.01 986.19 1002.79 986.251 990.455 991.33C990.349 996.703 990.394 1002.24 990.371 1007.63C990.455 1022.19 990.421 1036.76 990.271 1051.32C981.222 1051.13 971.771 1051.31 962.694 1051.35C963.089 1040.76 961.431 966.294 963.094 961.655Z" fill="white"/>
</svg>
