<svg width="806" height="268" viewBox="0 0 806 268" fill="none" xmlns="http://www.w3.org/2000/svg">
<path d="M748.232 57.6006C750.618 57.6012 753.011 57.6044 755.411 57.6104C762.611 57.6281 769.867 57.6642 777.119 57.6826C781.954 57.6949 786.788 57.6992 791.603 57.6855C796.417 57.6719 801.214 57.6406 805.974 57.5801L806 172.813L798.821 172.806C762.872 172.743 726.107 172.358 690.371 172.821V172.82C690.376 163.323 690.441 153.633 690.474 143.949C690.482 141.529 690.488 139.108 690.49 136.691C690.495 131.858 690.484 127.039 690.447 122.259C690.429 119.869 690.404 117.488 690.371 115.121L686.786 115.083C668.833 114.914 650.447 115.111 632.519 115.109C632.972 77.1413 632.545 38.0394 632.522 0.00585938L748.188 0L748.232 57.6006ZM748.232 57.6006C729.175 57.5823 709.321 57.2874 690.321 57.625C690.321 75.7009 689.811 97.2966 690.371 115.121L748.214 115.133L748.232 57.6006Z" fill="white"/>
<path d="M0.000889002 115.094L44.6289 115.085L74.0203 186.731C76.4877 192.744 79.882 201.233 82.6212 207.419C82.9632 207.588 83.2541 207.732 83.4929 207.849C85.0171 207.019 95.3872 180.684 96.8869 177.037L122.313 115.088L167.354 115.101L167.34 264.992L131.687 264.988L131.69 210.055L131.643 171.462C127.72 179.559 122.509 194.026 119 202.857L94.7285 263.985L72.0794 263.971L48.5373 204.013C44.5123 193.765 39.8087 180.696 35.2812 170.915C34.4273 201.063 35.1558 234.582 35.1589 264.992L0 265.003L0.000889002 115.094Z" fill="white"/>
<path d="M411.853 115.1L411.844 264.99L376.518 264.998C376.53 258.392 376.485 251.785 376.385 245.18C366.387 263.641 354.387 269.274 333.548 265.462C332.286 265.124 331.034 264.747 329.795 264.33C297.797 253.21 294.017 209.415 302.857 181.715C308.138 165.168 322.7 152.485 340.201 151.248C357.64 150.016 368.552 157.363 375.894 172.739L375.911 115.095L411.853 115.1ZM375.018 194.99C372.033 184.053 364.355 178.373 353.012 179.262C347.422 180.617 343.207 183.153 340.327 188.33C331.239 204.664 333.904 242.17 360.078 238.258C377.69 233.095 379.086 209.897 375.018 194.99Z" fill="white"/>
<path d="M227.917 151.161C259.906 147.719 288.633 170.853 292.093 202.846C295.554 234.839 272.439 263.585 240.454 267.065C208.443 270.547 179.674 247.405 176.21 215.386C172.747 183.367 195.902 154.606 227.917 151.161ZM252.808 222.35C256.737 205.599 254.658 176.371 230.762 178.748C212.532 183.676 212.074 208.233 215.728 223.277C218.441 234.449 226.193 240.665 237.823 239.482C246.388 237.01 250.823 230.808 252.808 222.35Z" fill="white"/>
<path d="M423.003 152.498L458.921 152.492L458.881 197.791C458.881 207.09 457.026 224.795 463.737 231.749C473.379 241.457 492.566 236.369 494.629 222.307C495.874 213.808 495.367 204.664 495.359 196.07L495.354 152.5L531.147 152.499L531.134 203.383V264.991L496.849 264.991L496.8 242.409C494.331 247.901 492.188 252.254 487.962 256.573C474.593 270.243 447.806 269.488 434.629 255.925C429.661 250.91 425.689 243.653 424.342 236.654C422.216 225.601 422.945 212.876 422.959 201.549L423.003 152.498Z" fill="white"/>
<path d="M542.449 115.093L578.322 115.103L578.295 219.602L578.366 249.184C578.38 252.978 578.598 261.576 578.131 264.991L542.404 264.992L542.449 115.093Z" fill="white"/>
<path d="M648.591 151.236C654.004 150.966 656.415 151.234 661.738 152.28L661.734 183.457C647.364 179.806 629.832 180.849 626.207 198.307C624.758 205.29 625.398 216.097 625.402 223.448L625.429 264.988L589.592 264.999L589.596 260.654L589.569 152.503L624.411 152.491C624.388 159.978 624.282 167.633 624.566 175.1C629.072 162.087 633.359 153.51 648.591 151.236Z" fill="white"/>
</svg>
