<svg width="863" height="232" viewBox="0 0 863 232" fill="none" xmlns="http://www.w3.org/2000/svg">
<path d="M390.178 0.282831C393.787 -0.0282689 397.936 -0.0456011 401.556 0.054315C418.685 0.527255 435.266 13.697 441.023 29.6237C445.344 41.7322 444.728 55.0569 439.311 66.7154C427.177 92.233 395.933 99.9404 372.302 85.5602C361.759 79.1445 355.965 68.4699 352.032 57.1988C339.645 57.6108 327.135 57.0233 314.789 57.3043C303.377 57.564 292.196 55.3922 283.222 63.6002C272.252 73.6336 275.899 85.9601 270.923 98.6188C268.16 105.648 263.59 110.586 259.246 116.546C279.458 136.805 269.985 153.855 281.17 166.635C287.675 174.068 295.8 174.371 304.985 174.967C306.459 171.777 307.591 168.1 309.191 165.056C328.171 128.947 379.733 131.639 394.878 169.888C398.253 178.411 397.751 196.729 393.793 204.693C388.567 215.208 377.981 225.668 366.872 229.554C357.241 232.8 340.501 232.785 331.501 228.053C316.523 220.178 310.722 212.727 305.256 197.269C301.459 197.373 296.042 197.479 292.349 197.069C275.911 195.65 258.097 181.024 254.246 164.744C249.87 146.239 252.448 130.099 227.556 127.456C222.6 127.385 214.492 126.853 209.855 128.078C207.834 129.743 206.708 133.793 205.49 136.29C191.492 164.973 154.085 172.426 131.342 148.984C123.992 141.409 122.265 137.873 118.464 127.699C111.395 127.074 99.5421 127.405 92.1068 127.413C89.4988 137.404 86.1181 143.04 78.2894 150.237C38.7348 186.603 -20.8292 137.653 7.28938 91.6852C20.3904 70.2678 48.5953 62.8073 70.6966 75.9469C80.3241 81.6706 89.8583 93.5602 92.2435 104.712C100.918 104.502 109.382 104.735 118.163 104.371C119.859 101.309 121.216 97.4152 122.786 94.4147C127.782 84.8717 138.073 74.9635 148.398 71.734C158.846 68.593 174.22 68.4872 183.983 73.7653C197.068 80.8403 204.068 90.6376 208.68 104.297C213.192 104.548 217.71 104.68 222.229 104.691C236.231 104.643 247.467 100.983 250.9 85.7838C252.443 78.9499 252.709 72.5679 254.924 65.6705C257.075 59.036 260.795 53.0195 265.768 48.1315C280.886 32.9826 295.152 35.1646 314.597 35.1832L351.939 35.1686C354.592 28.4675 356.503 23.025 361.107 17.3082C367.922 8.84581 379.3 1.44954 390.178 0.282831ZM373.882 183.232C372.303 170.537 360.763 161.508 348.069 163.036C335.3 164.572 326.212 176.201 327.8 188.969C329.388 201.739 341.048 210.784 353.803 209.142C366.485 207.51 375.461 195.927 373.882 183.232ZM179.002 98.2135C173.49 93.5064 166.111 91.6151 159.015 93.0924C150.759 94.8109 144.063 100.836 141.481 108.867C138.898 116.899 140.826 125.699 146.531 131.913C152.235 138.126 160.836 140.793 169.053 138.898C179.286 136.538 186.701 127.654 187.198 117.158C187.54 109.915 184.515 102.921 179.002 98.2135ZM69.5843 111.457C67.0832 99.0046 55.0323 90.8847 42.5599 93.2467C34.3656 94.799 27.6376 100.637 24.9427 108.534C22.2482 116.43 24.0028 125.167 29.5374 131.409C35.0722 137.651 43.5325 140.435 51.6898 138.699C64.1059 136.056 72.0857 123.909 69.5843 111.457ZM420.568 41.6432C418.035 28.865 405.588 20.593 392.834 23.2135C380.203 25.8093 372.032 38.1185 374.54 50.774C377.048 63.4293 389.294 71.6868 401.959 69.2643C414.747 66.818 423.1 54.4214 420.568 41.6432Z" fill="white"/>
<path d="M698.33 42.9065C724.12 42.3387 744.131 51.6686 740.177 81.4798C739.013 90.2748 731.403 95.214 724.759 100.122C728.704 102.627 733.396 104.55 736.784 107.79C742.124 112.9 744.743 122.377 744.865 129.519C745.01 138.004 742.664 146.206 736.526 152.253C726.825 161.813 717.136 164.174 704.286 164.403C697.162 164.393 688.833 164.494 682.161 161.878C673.121 158.332 664.709 152.686 660.655 143.528C654.582 129.809 658.015 113.557 670.566 104.827C673.487 102.777 675.661 101.738 678.877 100.292C676.187 98.5499 673.483 96.4698 671.037 94.4016C659.261 84.4416 659.705 65.1242 669.986 54.2102C677.731 45.9897 687.356 43.4368 698.33 42.9065ZM720.955 124.7C718.591 112.979 710.302 109.529 699.413 109.966C675.014 111.691 676.138 149.004 704.699 146.883C710.211 145.818 714.976 143.615 718.219 138.822C720.986 134.672 721.974 129.584 720.955 124.7ZM715.194 65.5901C711.766 60.6386 705.945 57.911 699.948 58.4475C690.817 59.2657 684.047 67.2843 684.767 76.429C685.483 85.5731 693.427 92.4347 702.571 91.8157C708.577 91.4087 713.899 87.805 716.513 82.3792C719.126 76.9529 718.618 70.5415 715.194 65.5901Z" fill="white"/>
<path d="M824.103 68.2551C824.827 68.197 825.557 68.1658 826.281 68.1603C835.05 68.1091 844.91 70.9877 851.419 77.3096C865.555 91.0379 862.792 106.656 862.765 125.002L862.774 162.74L839.068 162.741C838.846 150.682 839.185 138.366 839.063 126.281C838.85 119.014 839.634 111.534 838.279 104.353C835.29 88.4733 817.377 84.5551 805.7 93.6323C804.898 94.4186 804.115 95.2248 803.354 96.051C801.402 98.1909 799.685 100.793 799.001 103.639C796.972 112.087 797.742 151.939 798.199 162.658C790.368 162.901 781.862 162.751 773.977 162.75C774.52 131.873 773.755 100.785 774.298 69.867C781.722 69.8688 789.141 69.9291 796.56 70.0469C796.601 73.0456 796.329 78.2749 797.769 80.7157C799.613 81.6044 800.355 80.3962 801.904 78.5618C808.182 71.1278 814.75 69.4383 824.103 68.2551Z" fill="white"/>
<path d="M590.282 68.2534C590.798 68.219 591.31 68.1959 591.826 68.1846C600.215 67.9911 610.478 70.5293 616.724 76.4991C631.163 90.2976 628.84 104.678 628.835 122.93C628.772 136.174 628.813 149.419 628.944 162.663C621.33 162.891 613.082 162.75 605.419 162.749L605.392 127.281C605.41 112.59 607.792 88.5922 585.381 89.0065C579.389 89.117 577.396 89.5711 572.463 93.1041C571.816 93.701 571.182 94.31 570.561 94.9318C568.541 96.9616 565.955 100.438 565.352 103.251C563.618 111.404 564.138 122.09 564.157 130.499L564.234 162.738C556.185 162.772 548.136 162.762 540.088 162.706C540.686 131.966 539.626 100.572 540.328 69.9057L562.599 69.9343C562.707 72.6933 562.63 79.3047 564.157 81.3595C567.078 81.4161 569.565 75.508 574.162 73.0159C580.363 69.6538 583.515 69.129 590.282 68.2534Z" fill="white"/>
</svg>
