<svg width="722" height="184" viewBox="0 0 722 184" fill="none" xmlns="http://www.w3.org/2000/svg">
<path d="M106.527 0.0210753C113.753 0.0175736 120.855 -0.0940314 128.139 0.233966C135.168 0.55064 137.098 8.47951 132.902 13.2027C130.516 15.889 125.718 15.3534 122.329 15.3219C122.256 20.3028 122.31 26.195 122.301 31.0513C122.608 37.3749 121.504 46.9909 123.886 52.9371C126.672 59.8929 133.082 68.4235 137.31 74.7594L172.151 127.268C175.163 131.824 178.206 136.358 181.276 140.876C183.736 144.523 187.455 149.281 188.143 153.611C189.505 162.551 187.608 170.003 181.361 176.545C172.873 185.433 161.25 183.666 149.915 183.666L123.928 183.656C92.1424 183.653 60.3404 183.661 28.5549 183.648C20.0721 183.646 13.0947 182.466 6.94845 176.103C0.858465 169.726 -1.43908 160.623 0.897668 152.121C2.20324 147.343 9.50983 137.304 12.6584 132.569L47.5959 80.2525L56.4318 67.0875C67.0518 51.3058 66.335 50.581 66.302 31.7047C66.2655 26.2592 66.2818 20.813 66.3518 15.3678C63.025 15.394 58.4647 15.8303 55.8742 13.3648C52.83 10.4671 52.842 5.05236 55.7697 2.08162C58.1445 -0.32809 62.2853 0.053058 65.4162 0.0210753H106.527ZM81.6457 15.3678C81.5622 21.5943 81.5462 27.8214 81.5959 34.0484C81.6007 38.5655 81.6864 43.0009 81.3537 47.5152C80.368 60.8875 72.649 70.5368 65.4582 81.3238L48.0793 107.355C42.5698 115.598 34.4267 124.598 43.7356 133.963C54.4432 144.736 72.3289 134.091 82.6994 127.748C97.6079 117.712 113.302 106.643 130.655 101.825C131.998 101.452 134.5 100.945 134.941 99.5426C133.289 95.4694 126.188 85.9056 123.513 81.5972C119.726 75.4996 114.611 69.2429 111.35 62.7515C106.4 52.8974 106.984 42.85 106.987 32.1861C106.968 26.5881 106.996 20.9897 107.069 15.3922L81.6457 15.3678Z" fill="white"/>
<path d="M286.309 25.1055C294.827 24.561 305.226 24.8098 313.264 27.6128C324.312 31.4993 333.37 39.6028 338.459 50.1506C336.541 52.1736 333.256 54.5155 330.984 56.2318L320.173 64.4111C313.983 52.4276 308.639 44.8368 293.866 44.9243C287.73 44.9606 281.247 45.9048 276.581 50.2361C270.74 54.8131 271.407 64.9375 277.41 69.1665C286.953 75.8893 302.501 78.6068 313.391 82.8763C330.856 89.7235 342.226 99.8348 342.001 119.502C341.664 148.905 316.31 158.687 290.878 158.512C281.387 158.427 270.102 155.835 261.926 151.135C253.68 146.397 246.069 136.952 242.723 128.077C245.16 125.802 249.483 122.81 252.251 120.742C254.776 118.855 258.668 115.8 261.228 114.23C261.733 114.672 263.765 119.562 264.466 120.755C266.356 124.142 268.557 127.192 271.412 129.89C282.051 139.932 307.205 142.73 315.026 127.847C316.247 125.522 316.34 120.427 316.141 117.827C315.409 108.285 305.882 104.867 297.932 102.07C284.731 97.4273 268.758 94.7598 257.887 85.196C251.648 79.796 247.853 72.1058 247.364 63.8688C246.837 55.7911 247.864 48.6153 252.718 41.9893C260.667 31.1401 273.209 25.894 286.309 25.1055Z" fill="white"/>
<path d="M634.005 26.958L657.002 27.0117C657.1 42.78 657.412 59.649 656.965 75.3915C673.857 51.653 712.45 53.7703 720 83.5068C722.1 91.7848 721.27 105.087 721.267 114.002L721.215 156.705C713.367 156.807 705.297 156.71 697.432 156.7C697.02 145.467 697.435 131.702 697.427 120.23L697.382 107.012C697.347 99.3048 697.672 90.3098 691.85 84.8595C682.765 76.3585 666.615 80.1792 660.857 90.8047C657.597 96.8222 657.83 100.22 657.815 106.875C657.807 110.797 657.805 114.367 657.807 118.1C657.877 130.955 657.87 143.807 657.78 156.66C650.202 156.895 641.71 156.777 634.087 156.697L634.005 26.958Z" fill="white"/>
<path d="M573.665 59.6064C574.915 59.4699 576.462 59.4991 577.747 59.5009C595.237 59.5224 610.215 67.1924 618.485 82.9159C615.227 86.2316 605.312 92.0349 603.092 94.9849C599.597 89.2496 595.107 84.3674 588.527 82.2506C573.045 77.2704 556.647 83.8334 551.63 100.03C549.27 107.497 549.985 115.597 553.615 122.537C558.76 132.247 567.43 137.315 578.17 137.105C586.595 136.94 593.075 135.242 598.755 128.44C599.842 127.137 602.315 122.675 603.242 122.177C604.752 123.735 616.572 132.62 618.762 133.99C611.3 148.492 596.447 156.665 580.512 158.46C568.75 159.787 554.412 154.49 545.442 146.992C535.185 138.417 528.595 126.242 527.552 112.84C525.305 85.6501 546.385 61.3706 573.665 59.6064Z" fill="white"/>
<path d="M474.785 37.9556C482.2 38.2198 491.245 37.9663 498.785 37.9646C498.745 45.7266 498.757 53.4886 498.822 61.2503L519.885 61.3333C519.817 67.8928 519.982 74.6541 519.937 81.2708C512.99 81.4498 505.75 81.2968 498.775 81.2326C498.742 89.3203 497.992 130.125 499.697 134.635C500.285 136.185 502.037 137.483 503.53 138.08C507.88 139.82 515.447 138.485 519.675 136.698C519.74 140.943 519.727 145.223 519.74 149.47C519.737 151.528 519.7 152.76 519.465 154.79C509.06 160.453 490.012 160.038 481.315 151.02C473.205 142.615 474.778 127.368 474.773 116.44L474.747 81.3308C470.231 81.4573 465.382 81.3196 460.772 81.4091C460.712 74.6993 460.726 67.9891 460.814 61.2798L474.768 61.2438C474.905 53.5258 474.694 45.7126 474.785 37.9556Z" fill="white"/>
<path d="M363.367 38.0031L387.215 37.9849C387.181 45.7371 387.193 53.4896 387.253 61.2416L408.504 61.2584C408.53 67.9749 408.517 74.6916 408.465 81.4084L387.252 81.2879C386.959 94.6851 387.379 108.218 387.201 121.63C387.154 125.193 387.158 130.323 388.101 133.67C390.229 141.225 403.309 138.73 408.493 136.748L408.482 150.813C408.476 152.093 408.414 153.455 408.376 154.743C404.27 157.343 395.711 158.318 390.881 158.508C379.356 158.955 366.887 152.575 364.542 140.43C362.909 131.973 363.327 122.16 363.324 113.403L363.383 81.2346C358.813 81.1841 354.161 81.2421 349.585 81.2549C349.914 74.8696 349.238 68.0364 349.747 61.3146L363.29 61.2736C363.585 53.7599 363.227 45.6659 363.367 38.0031Z" fill="white"/>
<path d="M424.527 61.2493C432.417 61.1578 440.308 61.1943 448.197 61.3585C448.242 92.9175 448.561 125.095 448.111 156.618C440.608 156.91 431.999 156.765 424.444 156.663C424.083 132.258 424.698 107.73 424.425 83.3115C424.343 75.9978 424.273 68.5485 424.527 61.2493Z" fill="white"/>
<path d="M433.529 21.37C441.39 19.85 448.988 25.0113 450.473 32.879C451.957 40.7468 446.761 48.3215 438.887 49.77C431.063 51.2093 423.547 46.054 422.072 38.2368C420.598 30.4193 425.719 22.8803 433.529 21.37Z" fill="white"/>
</svg>
