<svg width="978" height="189" viewBox="0 0 978 189" fill="none" xmlns="http://www.w3.org/2000/svg">
<path d="M631.512 13.2061L653.603 13.1558C653.632 28.7943 653.99 45.7302 653.526 61.2681C653.636 61.1117 653.746 60.9568 653.861 60.8034C658.154 54.9696 665.541 51.4711 672.566 50.5236C714.556 44.8623 728.543 94.8506 706.858 124.043C704.943 126.239 702.407 128.658 700.048 130.343C691.863 136.142 681.725 138.477 671.831 136.841C663.76 135.48 657.939 131.905 653.235 125.274V135.351C646.072 135.222 638.589 135.33 631.402 135.328L631.378 55.288C631.373 42.3204 630.896 25.7954 631.512 13.2061ZM676.869 117.012C680.713 116.189 683.588 115.272 686.663 112.634C700.153 101.054 695.999 71.4699 675.746 70.3159C674.237 70.2298 672.437 70.3503 670.909 70.4177C644.391 75.7567 648.087 119.352 676.869 117.012Z" fill="white"/>
<path d="M483.222 50.4477C484.139 50.4109 485.056 50.4057 485.968 50.432C538.163 52.0043 534.137 140.062 482.262 137.258C472.835 136.748 466.46 134.261 460.046 127.321L460.067 149.926C460.037 155.73 460.05 161.534 460.104 167.337L437.575 167.335C437.052 129.676 437.429 89.9568 437.581 52.2419L459.431 52.1836L459.468 62.1727C459.966 61.4341 460.5 60.7199 461.067 60.0324C466.818 53.1875 474.728 51.1859 483.222 50.4477ZM485.027 116.719C509.51 109.073 505.81 68.017 476.675 70.872C449.904 77.0185 456.17 122.119 485.027 116.719Z" fill="white"/>
<path d="M568.573 49.955C578.247 49.008 589.813 50.6564 597.755 56.6393C611.728 67.1663 608.748 84.4745 609.015 99.7778C609.221 111.61 608.356 123.571 609.956 135.343L589.336 135.315C588.844 132.887 588.572 128.347 588.347 125.735C576.17 142.793 549.18 141.59 538.239 123.425C535.651 117.812 534.787 111.605 536.606 105.591C541.577 88.2594 559.647 87.5107 574.652 85.4766C580.96 84.6213 590.783 83.8229 585.707 73.6612C582.225 66.6863 569.852 66.6127 563.955 70.2942C559.442 73.1086 558.382 76.4125 557.14 81.3705C550.502 79.8918 543.85 78.4921 537.179 77.1712C540.326 60.4523 552.117 51.7196 568.573 49.955ZM561.887 119.018C570.172 122.922 580.969 120.565 585.114 111.736C586.8 108.145 587.13 102.672 586.929 98.7471L586.442 98.2208L586.184 98.238C579.064 99.2276 564.714 99.7018 559.867 105.527C556.763 109.262 558.038 115.818 561.887 119.018Z" fill="white"/>
<path d="M762.496 49.961C782.209 47.4402 801.611 57.1473 802.643 79.0856C803.502 97.3385 801.363 117.405 803.779 135.337C796.898 135.253 789.869 135.336 782.978 135.345C782.596 132.501 782.429 128.632 782.214 125.7C769.568 142.866 743.261 141.632 731.929 123.309C729.312 117.341 728.557 111.414 730.573 105.097C735.663 88.1215 753.714 87.5779 768.289 85.5036C771.574 84.851 779.745 84.5867 780.504 80.297C782.691 67.9443 766.092 65.4742 758.079 70.0124C753.313 72.7102 752.138 76.646 750.906 81.355C744.268 79.9093 737.626 78.5105 730.974 77.159C734.197 60.3297 745.902 51.6763 762.496 49.961ZM755.787 119.11C764.736 123.198 776.865 119.92 779.678 109.509C780.619 106.017 781.068 102.153 780.719 98.5351C780.538 98.4505 780.141 98.2344 779.974 98.2411C772.892 99.2178 758.518 99.6877 753.705 105.477C750.457 109.379 751.799 115.802 755.787 119.11Z" fill="white"/>
<path d="M391.309 52.2324L413.83 52.1979L413.831 81.0854C413.812 98.8282 413.36 117.743 414.601 135.341L393.109 135.32C392.798 132.383 392.649 129.647 392.5 126.698C378.613 146.229 343.226 137.967 339.331 114.005C337.754 104.305 338.086 96.6568 338.095 86.9015L338.137 52.2214L360.555 52.1841C360.9 69.3633 359.8 86.9799 361.082 104.093C362.341 120.888 388.599 121.091 390.794 104.659C391.665 98.136 391.372 91.7208 391.367 85.1327L391.309 52.2324Z" fill="white"/>
<path d="M847.718 49.9491C865.325 47.6329 879.794 56.3294 884.092 73.75C877.856 75.1306 871.628 76.549 865.406 78.0057C863.529 72.1035 861.829 69.4904 855.784 67.3807C850.273 65.4589 840.192 68.7007 840.961 75.3696C842.432 84.2731 857.054 83.5311 864.169 86.0352C875.248 89.9329 883.548 95.1648 884.723 108.091C885.405 114.943 883.328 121.785 878.949 127.095C872.66 134.624 864.365 136.976 854.996 137.79C837.16 138.184 821.592 131.134 818.12 112.216C823.574 110.682 831.386 109.198 837.074 107.935C838.148 111.999 838.941 114.244 842.36 117.188C848.597 122.555 864.088 122.367 863.314 111.232C862.837 105.869 854.408 104.117 850.201 103.264C836.744 100.539 822.361 95.9636 820.489 80.068C819.729 73.2547 821.716 66.4203 826.004 61.077C831.491 54.1135 839.103 50.9736 847.718 49.9491Z" fill="white"/>
<path d="M284.523 49.9543C302.029 47.6085 316.829 56.315 320.928 73.7781C314.693 75.1038 308.478 76.5222 302.286 78.0334C301.251 74.6654 300.663 72.9917 297.89 70.2433C292.354 64.7561 277.627 65.6874 278.004 75.4633C278.073 77.2513 279.453 80.111 281.317 80.9046C291.656 85.3071 304.004 84.1837 313.1 92.0597C317.74 95.8049 321.566 102.297 321.759 108.494C322.352 127.473 308.732 136.194 292.041 137.785C273.686 138.204 258.897 131.286 254.912 112.179L273.947 107.953C275.08 112.064 275.766 114.193 279.176 117.163C283.91 121.286 294.494 122.229 298.688 117.003C299.921 115.437 300.468 113.438 300.206 111.46C299.241 103.74 283.92 102.795 277.729 101.025C245.764 91.8886 253.095 53.5876 284.523 49.9543Z" fill="white"/>
<path d="M143.388 67.0732C153.272 66.9446 172.002 64.5997 179.014 72.0087C191.447 85.1445 176.639 98.5106 168.366 108.849L145.524 137.516L119.162 170.795C115.091 175.918 110.856 181.357 106.64 186.381C105.857 187.315 103.523 188.405 102.338 188.889H99.7164C96.3407 187.647 92.9053 185.487 92.752 181.662C91.9669 162.023 91.6183 141.087 91.6579 121.502C92.1842 109.919 91.2673 97.1362 91.7162 85.3916C91.4435 79.9876 91.3776 72.2645 91.6226 66.9967C107.473 66.9972 127.912 66.4039 143.388 67.0732Z" fill="white"/>
<path d="M91.6226 66.9965C107.473 66.9969 127.912 66.4037 143.388 67.0729C135.082 67.8833 107.832 66.7985 102.607 68.4928C99.9872 73.5249 96.099 74.5513 92.931 78.7224C91.8886 80.0944 92.6803 83.3257 91.7162 85.3914C91.4435 79.9873 91.3776 72.2642 91.6226 66.9965Z" fill="white"/>
<path d="M0 102.566C1.67014 95.1504 13.2717 82.3737 18.3819 75.9275L49.0891 37.3196C54.8864 30.0431 60.6456 22.7363 66.3665 15.3994C69.8277 10.9833 73.1604 6.51953 77.0075 2.41974C81.4553 -2.40133 90.5247 0.400138 90.9392 7.12858C91.4449 15.3348 91.2964 23.9027 91.3002 32.1584C91.306 43.7389 91.9741 55.4473 91.6226 66.9963C91.3776 72.2641 91.4435 79.9872 91.7162 85.3912C91.2673 97.1358 92.1842 109.918 91.6579 121.502C66.3331 122.137 39.7797 121.507 14.3674 121.357C6.66602 121.312 1.99945 114.266 0 107.417V102.566Z" fill="white"/>
<path d="M976.873 111.455C967.207 138.461 936.807 145.285 913.747 129.969C894.072 116.901 890.987 85.3985 904.53 66.5614C910.858 57.8033 920.375 51.8935 931.024 50.1122C940.666 48.5738 954.486 51.1099 962.379 57.1115C973.138 65.2955 976.013 75.0867 978 87.7181V99.0797C977.971 99.1084 977.947 99.1385 977.919 99.1653C976.677 100.309 924.792 99.7064 918.226 99.7146C921.268 118.311 942.003 125.468 955.183 111.228C956.224 110.102 957.427 107.327 958.115 105.862L976.873 111.455ZM918.756 84.2201L939.08 84.2062L955.871 84.2091C954.333 73.5167 947.447 67.0065 936.306 68.1251C926.225 69.0851 920.724 74.2964 918.756 84.2201Z" fill="white"/>
</svg>
