<svg width="1213" height="353" viewBox="0 0 1213 353" fill="none" xmlns="http://www.w3.org/2000/svg">
<path d="M143.401 0.113783C148.256 -0.189292 155.592 0.163267 160.465 0.583076C188.102 2.95711 214.505 13.0953 236.628 29.8284C267.853 53.3196 288.47 88.251 293.944 126.94C299.415 165.475 289.369 204.606 266.012 235.739C259.109 244.876 250.94 253.512 242.046 260.708C236.393 265.088 231.698 270.325 226.143 274.832C209.892 288.015 190.773 295.387 170.266 298.231C171.322 302.276 172.542 305.654 174.004 309.527L171.082 312.448C167.236 310.984 163.238 311.894 162.784 316.533C162.625 318.144 163.122 319.751 164.162 320.994C167.398 324.797 171.681 321.833 174.445 319.251C177.457 336.893 162.421 347.245 147.874 352.64C140.097 351.621 128.404 343.012 124.037 336.513C120.117 330.676 119.276 326.151 120.482 319.346C122.165 321.001 123.511 322.253 125.859 322.481C131.353 323.003 134.734 317.58 130.575 313.296C129.463 312.031 128.247 311.909 126.618 311.981C123.537 312.117 123.05 311.381 121.078 309.31C123.593 304.826 125.264 301.763 127.093 296.897C121.337 295.572 116.208 294.164 110.506 292.558C110.197 292.661 109.888 292.762 109.578 292.862C89.3851 299.35 70.7815 289.02 64.3692 269.059C58.5555 265.094 53.0322 260.719 47.8421 255.966C18.9211 229.514 1.74656 192.618 0.125954 153.457C-1.48677 114.529 12.4409 76.5565 38.8411 47.9033C66.4264 17.8337 102.859 1.83911 143.401 0.113783ZM63.2929 263.131C63.1248 254.704 64.0395 250.096 68.0403 242.603C66.5463 241.166 64.8277 239.727 63.8908 237.907L63.9133 237.329C65.5557 237.308 68.0615 239.515 69.435 240.562C73.5383 235.048 77.6609 231.489 83.9622 228.541C61.5536 209.92 47.5229 186.185 44.8086 156.813C42.2974 129.65 50.715 102.606 68.1992 81.6665C85.7428 60.5388 110.978 47.2674 138.328 44.785C154.007 43.353 169.807 45.5165 184.525 51.1109C211.172 61.9078 231.632 80.7781 242.919 107.483C253.507 132.591 253.689 160.876 243.424 186.118C233.236 211.147 213.54 231.156 188.681 242.028C180.923 245.422 174.714 245.06 171.383 253.773C169.703 258.168 169.294 260.556 168.746 265.239C187.912 269.041 204.109 269.442 223.346 264.848C235.812 261.871 239.931 257.708 248.767 248.989C269.344 228.691 283.217 202.583 288.524 174.17C295.621 136.726 287.493 97.9981 265.941 66.5667C244.441 35.1714 211.352 13.6007 173.951 6.59886C164.592 4.86243 153.236 3.87142 143.691 4.23319C104.344 5.97749 68.9433 21.3322 42.1638 50.5794C16.3636 78.5608 2.80987 115.689 4.51535 153.711C6.18584 191.622 22.8566 227.314 50.8561 252.926C54.8233 256.54 58.9744 259.946 63.2929 263.131ZM71.2172 245.696C67.3601 253.781 66.3122 261.856 69.3853 270.448C72.1392 278.122 77.839 284.382 85.223 287.84C90.9086 290.492 96.4189 291.041 102.579 290.373L103.313 290.182C102.847 289.548 98.2675 287.7 97.2212 287.262C84.208 281.817 71.7785 273.027 74.2331 256.901C74.6039 254.538 75.2746 252.231 76.2292 250.037C74.6292 248.644 72.8451 247.016 71.2172 245.696ZM96.0382 229.801C87.3004 230.625 80.1629 234.124 74.5049 240.932C73.9819 241.563 73.4889 242.217 73.0283 242.894L78.5474 246.139C83.5458 239.946 88.7077 237.005 96.6865 236.134C97.0159 236.098 97.3459 236.066 97.6762 236.037C107.263 236.508 113.594 240.921 123.302 243.264C118.013 236.173 111.392 231.385 102.454 230.053C100.331 229.735 98.1796 229.651 96.0382 229.801ZM88.7232 226.828C105.705 223.253 120.484 228.996 129 244.53C135.41 245.663 142.581 246.547 149.089 246.315C177.019 245.291 201.101 235.186 220.301 214.516C238.133 195.294 247.579 169.763 246.551 143.563C245.534 117.246 234.035 92.4277 214.617 74.636C196.094 57.5321 170.529 47.6262 145.273 48.5288C117.682 49.7571 93.446 60.1987 74.6564 80.7518C57.0128 100.013 47.7254 125.483 48.8299 151.581C50.0037 178.008 61.666 202.877 81.2333 220.679C82.8573 222.157 86.8429 225.584 88.7232 226.828ZM139.042 255.038C141.076 255.935 143.423 257.036 145.469 257.829C151.437 260.195 158.174 262.629 164.424 264.151C164.942 260.165 165.493 256.957 167.113 253.239C167.33 252.741 169.494 248.155 169.494 248.159C164.511 249.126 159.712 249.818 154.626 250.147C148.46 250.545 143.415 249.832 139.042 255.038ZM159.169 342.123C164.978 337.668 168.43 334.03 170.537 326.79C166.972 326.98 164.196 326.961 161.287 324.351C159.373 322.624 158.239 320.197 158.142 317.625C157.831 310.714 162.627 308.105 168.634 307.385C167.595 304.399 166.749 301.898 165.933 298.84C154.206 299.676 143.17 299.99 131.489 297.683C130.164 300.97 128.785 304.29 127.03 307.379C130.335 307.909 132.867 308.783 134.912 311.57C138.069 315.872 137.002 322.358 132.486 325.269C129.701 327.063 127.42 326.983 124.31 326.797C127.209 335.675 133.021 341.243 141.274 345.464C143.191 346.442 145.177 347.28 147.215 347.967C151.895 346.777 155.151 344.803 159.169 342.123ZM136.359 251.951C136.813 251.467 137.851 250.555 137.903 250.044C133.296 249.523 128.405 248.129 124.289 247.655C125.911 248.536 134.096 253.176 135.382 253.103L136.359 251.951ZM97.6908 240.245C91.1395 240.84 86.7445 242.958 82.4542 248.073L82.3432 248.208C85.7257 249.891 89.1444 251.501 92.5971 253.035C94.8005 254.011 100.504 256.248 102.083 257.547C106.972 261.57 102.271 268.874 95.5447 264.652C89.8227 261.06 84.9559 257.246 79.7532 252.933C72.498 274.385 95.0438 282.615 110.948 288.222C131.198 295.36 154.779 297.404 175.875 293.183C195.826 289.319 212.246 281.698 227.454 267.991C189.4 278.191 154.543 269.478 121.012 250.539C114.069 246.617 105.637 239.755 97.6908 240.245Z" fill="white"/>
<path d="M162.217 114.616C164.735 114.299 171.09 114.467 173.968 114.469L196.454 114.47L196.468 175.901L175.746 175.93C173.336 175.943 170.872 175.832 168.463 175.894C158.336 176.157 152.404 174.141 150.084 185.922C149.657 182.522 149.794 177.488 149.792 173.924L149.798 155.198V137.34C149.805 126.332 148.314 116.368 162.217 114.616ZM180.811 149.465C183.334 149.29 185.243 147.108 185.08 144.583C184.918 142.058 182.746 140.139 180.221 140.288C177.676 140.438 175.739 142.629 175.902 145.173C176.066 147.717 178.267 149.642 180.811 149.465ZM172.984 124.258C173.971 125.346 174.102 125.571 174.28 126.999L174.304 127.182C174.559 129.209 173.508 131.799 173.967 132.95C174.718 133.252 175.791 133.166 176.422 132.614C174.425 131.582 174.992 128.848 175.036 126.728C176.434 128.484 178.9 131.783 180.344 133.31L181.092 133.042C181.934 129.717 180.237 126.546 182.264 124.472C181.284 124.107 180.424 124.246 179.365 124.296L179.249 124.581C180.95 126.068 180.454 127.579 180.443 129.813C178.077 126.795 177.043 123.987 172.984 124.258ZM161.762 159.569L164.411 165.92C165.72 163.486 166.409 161.482 167.362 158.881L167.747 163.163C167.469 163.847 167.294 164.386 166.856 164.991L167.014 165.475C168.117 165.521 169.664 165.677 170.67 165.372C170.702 164.138 169.904 163.933 169.596 163.065C169.093 161.65 170.337 157.749 170.037 156.84C169.044 156.615 168.337 156.726 167.329 156.795L165.329 162.06L162.862 156.689L159.673 156.695C161.58 159.016 160.969 162.553 159.833 165.161L159.996 165.537C160.773 165.502 161.864 165.598 162.398 165.227C161.271 162.397 161.394 162.56 161.762 159.569ZM175 161.702L175.427 161.282C176.563 161.459 176.379 161.56 177.384 162.399C177.824 161.607 177.656 160.628 177.663 159.596C176.176 160.214 176.338 160.619 175.068 160.533C174.997 159.334 174.891 158.85 175.347 157.736L175.889 157.495C176.569 157.788 177.242 158.096 177.908 158.418C178.362 157.839 178.228 158.06 178.158 157.105C176.875 156.535 173.257 156.682 171.637 156.695C173.375 158.717 173.543 163.131 171.614 165.253C173.233 166.06 177.551 165.93 178.756 164.368L178.647 163.83C177.335 164.167 176.767 164.856 175.653 164.584C174.778 163.584 174.975 163.172 175 161.702ZM186.773 130.003C187.552 131.227 187.585 131.165 187.309 132.743C188.635 133.022 189.274 132.965 190.62 132.927L190.826 132.601C189.981 130.898 187.389 124.398 186.722 123.828C186.187 124.663 182.957 132.069 182.859 132.893L183.576 133.524C184.423 133.209 184.545 133.216 185.105 132.552C184.53 131.362 184.521 131.773 184.787 130.799C185.582 130.144 185.741 130.137 186.773 130.003ZM183.611 156.436C181.442 159.561 181.645 162.041 179.403 165.118L179.537 165.475C180.617 165.545 180.797 165.736 181.64 165.267C181.575 163.748 181.332 163.892 182.049 162.892L183.099 162.383C185 163.779 183.518 164.225 185.557 165.866C186.602 166.081 187.055 165.989 187.902 165.223C185.495 162.945 185.188 157.572 183.611 156.436ZM160.598 133.593C161.125 132.33 162.749 127.9 163.462 127.191C163.58 127.682 163.648 127.84 163.667 128.352C163.676 129.094 163.302 132.813 163.369 132.967C164.185 132.983 165.99 133.096 166.653 132.847L166.495 132.544C165.572 130.726 165.08 126.052 166.624 124.507C165.81 123.684 166.215 123.879 165.113 123.734C162.819 124.724 162.213 127.272 161.452 129.442C159.711 125.905 160.163 124.074 155.952 124.232C158.584 127.294 155.579 130.793 156.285 132.682C157.101 133.213 157.693 133.084 158.686 133.063C158.658 132.111 157.963 132.5 157.735 131.447C157.453 130.146 157.677 128.154 157.76 126.768L160.598 133.593ZM161.647 140.165C161.639 140.607 161.62 141.55 161.611 142.024C161.601 142.512 162.395 141.989 161.929 142.647L161.645 142.289L161.835 142.754C162.688 141.737 162.623 141.489 163.704 141.093L164.216 141.298C164.367 142.93 164.568 146.82 164.117 148.314L163.237 149.047C164.088 149.417 166.544 149.267 167.609 149.256L167.752 148.998L167.036 148.125C166.488 147.208 166.551 142.286 166.819 141.183C168.131 141.075 167.851 141.999 169.319 142.498C169.371 141.517 169.463 141.251 168.995 140.41C166.679 140.192 164.334 140.811 161.647 140.165ZM174.754 149.223C172.984 147.108 173.809 145.268 173.773 142.571C173.758 141.438 174.105 141.535 174.773 140.564C173.342 140.322 171.675 140.44 170.206 140.486C173.496 143.495 170.31 146.324 171.148 149.009C172.045 149.569 173.643 149.303 174.754 149.223ZM172.381 133.066C169.279 129.988 172.229 127.013 171.45 124.588C170.596 123.991 169.056 124.198 167.957 124.239C170.508 127.791 167.939 130.444 168.57 132.59C169.492 133.211 171.181 133.057 172.381 133.066Z" fill="white"/>
<path d="M179.689 140.905C180.469 140.969 180.55 141.044 181.27 141.393C183.161 143.537 182.788 146.618 181.445 148.953C177.498 148.208 177.901 143.554 179.689 140.905Z" fill="white"/>
<path d="M99.1055 114.471C109.496 114.452 119.886 114.434 130.29 114.474C139.862 114.248 145.873 119.098 145.566 129.204C145.009 147.504 146.252 166.54 145.426 184.81C142.978 182.248 145.318 177.034 136.652 176.26C131.862 175.833 127.45 175.906 122.645 175.907L99.1336 175.93L99.1055 114.471ZM119.113 133.055C121.561 132.373 122.995 129.838 122.317 127.388C121.64 124.939 119.106 123.501 116.656 124.174C114.199 124.849 112.757 127.39 113.436 129.845C114.115 132.3 116.658 133.738 119.113 133.055ZM113.731 156.76L113.121 156.995C114.063 158.095 114.109 161.553 114.126 163.046C114.13 163.394 113.233 164.87 112.99 165.268C114.138 165.676 118.077 165.604 119.346 165.434L119.882 165.019L119.865 163.65L119.589 163.484L119.362 163.711C118.685 164.378 118.432 164.709 117.465 164.832C115.399 163.672 115.817 158.377 117.291 156.802C116.304 156.536 114.802 156.702 113.731 156.76ZM123.796 146.274C123.388 145.398 121.724 140.343 121.9 140.598C120.861 140.275 119.38 140.402 118.254 140.434C121.224 143.993 120.673 146.516 123.152 150.052C124.33 147.297 125.715 142.794 127.472 140.769L127.532 140.51C126.446 140.472 125.574 140.377 124.512 140.618C125.059 141.327 125.391 141.451 125.194 142.193C124.847 143.499 124.257 145.009 123.796 146.274ZM129.731 140.482C125.924 144.525 130.355 144.418 132.096 147.025C132.187 148.004 132.276 147.613 131.698 148.496C130.082 149.083 129.575 148.001 128.399 146.833L128.117 146.941C128.176 147.928 128.118 148.183 128.67 148.984C129.718 149.512 131.191 149.457 132.359 149.355C137.019 145.652 130.872 144.061 130.234 141.517C130.884 141.085 130.931 141.113 131.745 141.158C132.566 141.762 132.723 141.954 133.376 142.742L133.665 142.787C133.584 141.884 133.672 141.15 133.227 140.484C131.691 140.299 131.281 140.331 129.731 140.482ZM127.714 164.105L127.357 163.448C126.268 164.173 125.365 165.112 124.35 164.926C122.235 160.662 124.939 159.644 124.49 157.28C123.734 156.299 122.258 156.674 121.062 156.757L120.737 157.021C121.853 158.236 121.55 162.173 121.547 163.885C121.546 164.343 120.887 164.977 120.565 165.286C121.209 165.659 125.511 165.501 126.579 165.507C127.47 164.998 127.183 165.187 127.714 164.105ZM111.121 165.56L111.695 165.314C110.825 163.48 110.152 158.429 111.884 156.888C111.384 156.541 109.483 156.708 108.702 156.72L107.671 156.982C109.168 158.588 108.52 161.379 108.61 163.472C108.651 164.435 108.216 164.66 107.614 165.344C108.83 165.598 109.883 165.555 111.121 165.56ZM116.094 146.05C113.448 142.672 112.856 140.287 108.353 140.466C109.15 141.162 109.594 141.3 109.767 142.417C110.143 144.856 110.503 147.152 108.929 149.22C109.905 149.3 110.326 149.421 111.228 149.037C111.208 149.1 110.688 144.469 110.786 143.106C112.077 144.712 115.192 149.065 116.767 149.78C117.19 146.289 116.261 142.765 118.042 140.783C117.311 140.396 115.831 140.241 115.108 140.661C116.306 143.345 116.217 143.259 116.094 146.05ZM139.941 133.047C137.007 129.873 139.902 126.346 139.198 124.587C138.384 124.006 136.893 124.214 135.806 124.247C138.556 130.154 132.58 133.281 139.941 133.047ZM132.679 162.303C133.116 161.091 135.213 157.436 134.885 156.668L132.507 156.737C132.549 157.167 132.923 158.052 132.985 158.452C133.119 159.31 132.061 161.441 131.688 162.301C131.276 161.557 130.629 160.43 130.357 159.64C129.905 158.331 130.651 157.74 129.732 156.802C128.6 156.523 127.325 156.65 126.147 156.694C128.099 158.616 129.761 164.025 130.787 166.824C131.446 165.33 132.076 163.822 132.679 162.303ZM131.299 127.404C131.319 129.571 131.467 130.865 130.862 132.972C131.797 133.077 132.437 133.011 133.36 132.951C134.953 131.248 131.863 127.581 134.169 124.442C133.343 124.007 132.691 124.216 131.63 124.258C130.363 125.141 129.585 128.012 129.044 129.566C127.531 125.995 127.735 124.047 123.469 124.24C126.288 127.646 123.174 130.655 123.908 132.759C124.673 133.233 125.246 133.041 126.173 132.933L126.389 132.728C124.603 130.802 125.284 129.112 125.34 126.628C126.28 128.889 127.258 131.384 128.261 133.597C128.677 132.535 130.569 127.381 131.193 126.853L131.299 127.404ZM103.126 124.247C105.739 127.701 102.924 131.653 103.457 132.979C105.007 133.456 108.808 132.8 110.317 132.042C111.818 130.518 113.448 127.772 111.351 125.964C108.962 123.905 106.059 124.167 103.126 124.247Z" fill="white"/>
<path d="M117.372 124.41C120.82 125.927 120.513 130.238 118.436 132.833C114.826 131.263 115.236 127.093 117.372 124.41Z" fill="white"/>
<path d="M106.343 124.75C110.313 125.285 109.992 128.54 108.998 131.435C108.616 131.742 108.118 131.97 107.678 132.199C105.47 131.897 106.282 126.695 106.343 124.75Z" fill="white"/>
<path d="M131.688 162.301C132.061 161.44 133.119 159.31 132.985 158.451C132.923 158.052 132.55 157.166 132.507 156.736L134.885 156.667C135.213 157.435 133.116 161.09 132.679 162.303L131.688 162.301Z" fill="white"/>
<path d="M79.386 117.031C82.5142 116.822 82.9239 117.451 84.7119 119.823C85.7648 120.195 86.8545 120.739 87.8901 120.538C89.7144 118.538 90.144 118.89 92.7109 118.997L92.7185 184.037L139.561 184.048C142.392 189.687 147.995 191.073 153.541 187.513C154.579 186.847 155.241 185.157 155.735 184.037L202.854 183.978L202.835 118.997L207.122 118.995L207.129 188.24H177.012L158.465 188.253C152.983 195.513 142.603 195.385 137.01 188.24L88.5358 188.253L88.5051 183.634L84.7005 185.277C84.1041 186.427 83.6498 187.341 82.457 187.987C81.5666 188.475 80.5168 188.582 79.5458 188.285C78.5919 187.987 77.4535 186.982 77.22 186.2C75.7915 181.409 79.3785 180.32 83.1157 181.211C83.3486 181.267 87.94 179.26 88.5156 179.011L88.5042 173.944L84.822 175.035C83.0148 177.97 79.343 179.222 77.7936 176.06C75.4533 171.284 79.5113 169.375 83.5764 170.953L88.4972 169.49L88.5086 164.273C87.6743 164.408 86.0929 164.569 85.3716 164.949C83.3207 166.031 81.6163 168.082 79.144 166.774C77.1137 165.7 76.6388 162.81 77.719 160.921C79.0038 158.674 82.7591 160.39 84.5762 160.538C85.3402 160.599 87.6749 160.077 88.5026 159.921L88.5092 154.633C85.4583 154.658 85.7342 154.602 82.8521 155.926C82.0039 156.332 79.9878 156.843 79.1627 156.157C74.818 152.546 78.328 146.351 84.5942 150.523L88.5048 150.301L88.5156 144.579L84.2651 144.406C81.3989 146.588 77.476 146.696 77.2102 142.189C76.8853 136.677 82.7202 138.713 85.6335 140.089C86.0101 140.266 88.0343 140.243 88.5035 140.235L88.5089 134.953L83.7646 134.185C78.3296 137.843 75.34 131.436 78.5024 128.462C79.131 127.879 79.9682 127.574 80.8247 127.616C82.7537 127.696 83.5874 128.73 84.8346 130.041L88.5086 130.675L88.4975 125.415L83.4751 123.918C82.8097 124.109 81.0155 124.703 80.4548 124.567C75.6884 123.408 75.6729 119.505 79.386 117.031Z" fill="white"/>
<path d="M147.359 199.6C149.469 200.475 155.122 209.48 156.595 211.81C155.27 212.1 153.707 212.322 152.353 212.549C154.19 215.331 155.794 217.667 157.79 220.341L164.923 214.256L161.554 212.535C164.093 210.155 170.025 206.266 173.104 204.144C171.542 210.387 168.824 218.038 166.797 224.206C160.421 222.163 154.193 221.986 147.592 221.796C140.205 221.923 135.62 222.27 128.461 224.179C126.385 217.506 124.094 210.752 121.914 204.102C125.647 206.21 130.707 209.848 134.217 212.346L130.886 214.288C133.07 216.322 135.288 218.32 137.539 220.28C139.439 217.939 141.207 215.13 142.882 212.595C141.617 212.292 140.053 212.05 138.752 211.812C140.106 209.259 145.441 201.881 147.359 199.6Z" fill="white"/>
<path d="M115.121 71.0244L115.924 71.1022C117.694 72.2663 123.205 80.8329 124.633 82.9638L120.545 83.8108C122.044 86.3837 123.992 89.1018 125.691 91.5814C128.397 89.4802 130.416 87.7372 132.958 85.4529L129.517 83.6763C131.896 81.6587 138.609 77.0624 141.298 75.5121C139.182 82.1833 137.028 88.8427 134.836 95.4892C127.834 93.3908 123.55 93.3146 116.342 93.0843C109.692 92.8485 103.047 93.6614 96.6498 95.4923C94.4025 88.8281 92.2029 82.1481 90.0518 75.4523C92.8582 76.9308 99.9055 81.7027 102.275 83.7867L98.9807 85.4266C101.131 87.6939 103.299 89.515 105.656 91.5437C107.609 88.95 109.263 86.5542 110.853 83.7279L106.784 82.9758C109.299 79.0573 112.399 74.8585 115.121 71.0244Z" fill="white"/>
<path d="M179.04 70.8545C181.326 71.6265 186.984 80.6563 188.355 83.0445L184.344 83.7465C185.67 86.1711 187.83 89.1853 189.418 91.5314C191.989 89.7871 194.437 87.5357 196.726 85.4491L193.342 83.7921C195.547 81.6935 202.515 77.0748 205.179 75.4279L198.653 95.4914C191.855 93.3481 186.626 93.2931 179.621 93.0583C172.957 92.9963 166.778 93.6338 160.369 95.4828L153.872 75.5767C156.439 76.741 163.955 81.8102 166.035 83.8317C164.96 84.3094 163.8 84.896 162.729 85.4082C164.955 87.586 167.124 89.4982 169.457 91.5482C170.222 90.5923 174.29 84.8992 174.494 84.0237C173.558 83.408 171.775 83.2517 170.59 83.0628C172.497 79.7176 176.665 74.1839 179.04 70.8545Z" fill="white"/>
<path d="M109.654 97.5567C113.958 97.0625 130.992 96.9309 133.06 100.798L132.793 101.452C130.372 103.338 124.651 103.663 121.607 103.94C117.217 104.388 100.364 104.544 98.2842 100.626L98.6028 99.9701C101.027 98.1983 106.669 97.818 109.654 97.5567Z" fill="white"/>
<path d="M141.291 226.325C145.173 226.005 163.59 225.562 165.366 229.647L165.091 230.265C162.593 231.888 157.046 232.393 154.031 232.631C149.304 233.141 133.199 233.173 129.783 229.647L129.87 228.877C132.196 227.172 138.416 226.569 141.291 226.325Z" fill="white"/>
<path d="M173.549 97.5548C177.645 97.0483 195.315 97.0505 197.089 100.841L196.772 101.507C194.396 103.153 189.163 103.599 186.267 103.853C181.939 104.309 164.022 104.66 161.716 100.549L162.089 99.961C164.754 98.305 170.429 97.8073 173.549 97.5548Z" fill="white"/>
<path d="M180.84 16.1671C197.679 14.0473 199.247 37.538 184.545 42.3775C167.87 45.1412 165.351 20.8509 180.84 16.1671ZM183.05 38.8893C192.33 35.9051 193.989 19.1628 181.987 19.6362C172.31 23.4322 171.649 39.4012 183.05 38.8893Z" fill="white"/>
<path d="M265.759 155.057C284.192 153.012 289.081 173.979 273.122 178.354C254.916 181.24 249.041 159.201 265.759 155.057ZM259.525 167.817C261.958 173.479 266.84 174.868 272.673 174.284C283.996 170.96 280.118 158.221 265.778 159.22C261.033 160.862 259.715 162.853 259.525 167.817Z" fill="white"/>
<path d="M253.097 69.0716C255.481 69.0539 257.82 69.7193 259.838 70.9896C260.896 71.655 262.323 72.9126 262.928 74.0023C268.666 84.3531 260.629 92.1699 250.979 94.03C247.993 94.0192 245.37 93.3997 242.96 91.5191C240.63 89.6761 239.137 86.975 238.817 84.0218C237.838 75.6811 245.443 69.8778 253.097 69.0716ZM251.403 89.789C264.201 86.0214 264.247 72.2976 252.313 73.1155C238.423 77.8231 240.449 91.5327 251.403 89.789Z" fill="white"/>
<path d="M240.299 208.03C246.92 213.037 253.892 218.831 260.413 224.058C257.316 228.059 254.891 231.486 250.822 234.507C242.796 238.462 233.032 232.495 231.998 223.83C231.297 217.953 236.773 212.351 240.299 208.03ZM249.584 231.005C251.959 229.205 253.326 227.475 255.181 225.148C251.233 221.957 244.479 216.184 240.488 213.492C238.274 215.98 235.532 219.186 235.866 222.714C236.483 229.233 243.538 233.699 249.584 231.005Z" fill="white"/>
<path d="M34.137 76.9369C35.457 76.8312 36.2454 76.9075 37.4946 77.1964C42.8732 78.4407 41.6817 82.4083 42.9046 84.5297C46.6301 83.8526 52.4147 84.7626 56.3569 85.1584C55.6299 86.4119 54.9094 87.669 54.1957 88.9301C50.9004 88.6909 46.7873 87.6262 43.6892 88.4362C41.6342 88.9734 41.0151 90.489 40.0864 92.2383L45.9982 95.4089L49.5172 97.3803L47.5226 100.923C39.9963 96.7928 32.4484 92.7031 24.8789 88.6536C27.3022 84.0845 29.3026 78.7891 34.137 76.9369ZM29.8497 86.6856L36.2182 90.1264L36.9377 90.3618C40.0206 87.836 40.6379 80.9178 34.6777 80.9279C34.4869 80.9273 34.2958 80.9307 34.105 80.9383C31.839 82.7775 31.205 84.1706 29.8497 86.6856Z" fill="white"/>
<path d="M251.832 184.488C259.668 187.956 267.483 191.47 275.277 195.032C272.365 201.872 269.316 212.013 260.031 205.544C258.419 203.631 258.294 203.07 258.063 200.555C253.282 201.411 249.313 201.193 244.474 201.175L246.153 197.234C249.651 197.03 253.719 197.733 256.738 196.708C258.643 196.062 259.243 194.267 259.976 192.539L250.224 188.2L251.832 184.488ZM267.949 202.491C269.148 200.538 269.634 199.499 270.553 197.408C268.089 196.251 265.574 195.029 263.064 193.995C261.846 196.816 260.993 198.383 262.043 201.574C262.938 204.294 266.102 203.852 267.949 202.491Z" fill="white"/>
<path d="M40.7691 176.232C41.4633 176.833 42.0122 178.828 42.3549 179.813C37.7093 185.575 33.0074 191.291 28.2504 196.962L46.1029 189.899L47.3969 193.463L24.1144 202.458L23.5289 202.601C22.7603 201.784 22.3177 200.151 21.9237 199.026L35.9394 182.048L17.9642 188.266L16.7031 184.663C24.6175 182.049 32.8707 179.003 40.7691 176.232Z" fill="white"/>
<path d="M48.5256 205.354C58.0461 204.473 63.9598 216.719 55.385 222.728C50.7856 225.95 46.1463 229.339 41.5422 232.585L39.2012 229.163L51.5471 220.434C52.5346 219.713 55.4011 217.734 55.4755 216.393C56.3544 200.545 37.6445 216.764 32.8638 220.065L30.5469 216.738C34.3762 214.013 44.6438 206.749 48.5256 205.354Z" fill="white"/>
<path d="M19.1871 103.432L22.5838 104.33L19.4262 114.661L26.3316 116.593C27.1662 113.417 28.0932 110.267 29.1115 107.145L32.2733 108.136L29.6776 117.489L37.4485 119.594L39.918 110.782C40.2103 109.882 40.0069 110.028 40.6384 109.64C41.7838 109.664 42.7048 110.018 43.7966 110.359C42.4409 114.981 41.1794 119.898 39.9012 124.563L14.9395 117.739C16.2985 112.975 17.7683 108.183 19.1871 103.432Z" fill="white"/>
<path d="M273.644 95.502C274.304 96.4495 274.883 98.5381 275.27 99.7188C272.945 102.36 270.665 105.041 268.431 107.76L278.764 110.159L280.021 114.288C275.605 113.055 270.385 111.918 265.875 110.819C264.746 112.177 256.608 122.309 255.695 122.534C255.221 121.272 254.785 119.793 254.368 118.496C256.905 115.588 259.403 112.646 261.862 109.672L250.56 107.043C250.079 105.748 249.653 104.251 249.241 102.918L264.543 106.507C267.492 102.831 270.629 99.1367 273.644 95.502Z" fill="white"/>
<path d="M52.9207 51.7949L53.7503 51.8772C54.4653 52.6928 54.5156 53.8682 54.7131 54.9965C51.1666 56.3149 45.2732 60.0645 49.8473 63.5132C53.5506 64.7544 60.9979 58.742 64.6756 61.3775C73.0094 67.3497 67.6842 75.1716 59.8791 77.9571L58.8556 78.0479C58.0447 77.2987 57.9355 75.9366 57.7033 74.7859C57.995 74.6973 58.2854 74.604 58.5737 74.5053C61.4665 73.5143 66.0491 71.1714 64.537 67.2039C63.2047 63.5495 57.7694 65.92 54.9674 67.1665C48.6842 69.9622 42.7648 65.6662 44.9115 58.8014C45.9977 55.329 49.3546 53.2247 52.9207 51.7949Z" fill="white"/>
<path d="M12.3466 130.251C19.7939 133.639 30.0103 137.41 37.791 140.558L37.6278 144.895C31.1939 146.528 22.7443 149.297 16.2481 151.233L11.4816 152.669L11.4756 148.394L32.4835 142.453C25.9035 139.624 18.9791 137.176 12.2912 134.483L12.3466 130.251Z" fill="white"/>
<path d="M211.279 26.9873C215.359 29.2287 219.578 31.8177 223.6 34.2071L221.803 37.2084L212.997 32.0771L209.37 38.1487C212.095 39.6943 214.981 41.5113 217.683 43.1385C217.134 44.1222 216.681 45.2375 215.765 45.7852L214.994 45.4656L207.662 41.1548L201.71 51.2268L198.209 49.1854L211.279 26.9873Z" fill="white"/>
<path d="M282.545 129.863C283.03 130.432 283.76 142.213 283.894 143.985L280.399 144.29L279.613 134.091C277.42 134.361 274.76 134.49 272.521 134.652L273.224 144.252C271.955 144.376 270.708 144.723 269.777 144.175L269.034 134.998L257.355 135.931L257.11 131.936C264.409 130.971 275.043 130.398 282.545 129.863Z" fill="white"/>
<path d="M122.924 12.9527L123.516 12.916C124.057 14.1087 120.558 26.264 120.767 29.3066C121.053 33.4704 122.023 35.8307 123.212 39.7277L119.351 40.9132C116.843 33.732 118.462 32.9654 112.629 27.0775C109.803 24.2346 107.035 21.335 104.327 18.3804L108.463 17.1635C111.41 20.1412 114.354 23.263 117.265 26.2864C118.097 22.2979 118.763 18.0507 119.461 14.0212L122.924 12.9527Z" fill="white"/>
<path d="M94.4966 21.8018C94.9152 22.269 95.8666 24.2455 96.2146 24.923L89.7649 28.3066C93.0165 34.7921 96.648 41.5069 100.025 47.9588L96.3351 49.9018L92.8096 43.0978L86.06 30.2022L79.5432 33.563L77.8936 30.418C83.4491 27.5873 88.9838 24.7152 94.4966 21.8018Z" fill="white"/>
<path d="M66.8522 38.1943C67.6828 38.3639 80.995 56.254 82.6621 58.4523L79.6462 60.7914C78.673 60.4719 65.4149 42.5688 63.8066 40.4148L66.8522 38.1943Z" fill="white"/>
<path d="M37.1855 161.774C37.6358 161.624 37.8525 161.697 38.3283 161.749C38.9627 162.722 38.9912 164.403 39.1098 165.615C31.2873 166.596 22.9425 168.008 15.0646 169.121C14.5465 169.27 14.3911 169.203 13.857 169.135C13.1913 168.197 13.1602 166.454 13.0361 165.241C20.3065 164.507 29.7353 162.821 37.1855 161.774Z" fill="white"/>
<path d="M231.008 53.9292C232.242 53.6026 233.557 53.9671 234.447 54.8821C235.337 55.7975 235.664 57.1216 235.302 58.346C234.941 59.5708 233.948 60.5054 232.704 60.7911C230.823 61.2233 228.944 60.0675 228.481 58.1945C228.018 56.3211 229.143 54.4231 231.008 53.9292Z" fill="white"/>
<path d="M146.267 21.0191C147.466 20.569 148.815 20.8039 149.792 21.6331C150.769 22.4622 151.22 23.7554 150.97 25.0121C150.721 26.2687 149.81 27.2916 148.591 27.6848C146.766 28.2733 144.805 27.2976 144.173 25.4869C143.542 23.6763 144.471 21.6928 146.267 21.0191Z" fill="white"/>
<path d="M167.248 276.999C169.166 276.67 170.989 277.954 171.326 279.871C171.662 281.787 170.386 283.615 168.471 283.96C166.544 284.306 164.703 283.021 164.364 281.093C164.026 279.165 165.319 277.329 167.248 276.999Z" fill="white"/>
<path d="M130.583 271.298C131.774 270.829 133.124 271.04 134.115 271.85C135.105 272.659 135.58 273.941 135.358 275.201C135.135 276.461 134.248 277.501 133.04 277.922C131.223 278.555 129.234 277.618 128.565 275.814C127.896 274.01 128.793 272.003 130.583 271.298Z" fill="white"/>
<path d="M842.667 160.36C880.286 157.737 912.893 186.139 915.453 223.761C918.015 261.383 889.559 293.943 851.934 296.442C814.394 298.935 781.929 270.56 779.372 233.026C776.816 195.492 805.139 162.978 842.667 160.36ZM852.114 288.998C886.74 285.1 896.944 246.786 893.549 217.172C891.783 201.759 886.357 186.499 873.951 176.411C866.137 170.054 852.788 166.085 842.771 167.782C807.721 171.913 797.85 210.278 801.346 240.281C803.121 255.504 808.816 270.698 821.117 280.548C828.767 286.674 842.382 290.808 852.114 288.998Z" fill="white"/>
<path d="M424.462 160.355C462.069 157.768 494.641 186.182 497.182 223.792C499.726 261.402 471.276 293.941 433.663 296.44C396.11 298.935 363.636 270.541 361.098 232.992C358.561 195.444 386.916 162.937 424.462 160.355ZM433.843 288.993C468.488 285.172 478.708 246.577 475.24 217.023C473.43 201.579 468.004 186.334 455.51 176.279C447.613 169.922 434.59 166.142 424.507 167.78C420.618 168.253 416.391 169.132 412.768 170.641C374.966 186.389 372.862 256.957 402.998 280.682C410.854 286.869 423.896 290.586 433.843 288.993Z" fill="white"/>
<path d="M1076.46 163.195L1120.17 163.185C1135.36 163.186 1149.18 162.518 1164.16 165.766C1201.55 173.874 1218.37 212.273 1210 247.523C1206.1 263.905 1198.04 275.385 1183.67 284.27C1165.84 294.825 1142.35 293.593 1122.25 293.6L1076.51 293.612L1076.47 288.882C1081.05 287.807 1092.47 285.973 1094.74 282.567C1095.6 278.417 1095.34 272.312 1095.34 267.954L1095.35 246.671L1095.36 202.515C1095.36 196.644 1095.81 179.426 1094.64 173.94C1094.11 171.467 1080.37 168.83 1076.46 167.917V163.195ZM1177.01 273.738C1182.31 267.202 1186.03 259.953 1187.84 251.719C1193.01 228.107 1191.23 195.212 1171.19 178.696C1156.56 166.638 1132.3 169.659 1114.57 169.343L1114.56 243.622L1114.57 268.068C1114.57 271.727 1114.11 283.652 1115.63 286.233C1119.71 288.882 1149.55 287.236 1155.57 285.763C1164.89 283.483 1170.51 280.894 1177.01 273.738Z" fill="white"/>
<path d="M930.791 163.195L973.387 163.19C987.103 163.192 1006.14 162.083 1018.4 168.406C1026.56 172.643 1032.69 179.949 1035.46 188.714C1040.09 203.408 1033.7 217.878 1020.91 225.822C1015.31 229.3 1010.84 230.695 1004.63 232.645C1013.71 237.846 1030.51 263.361 1038.14 272.898C1049.83 287.512 1047.04 284.824 1065.95 288.846L1065.98 293.588L1044.61 293.619C1041.86 293.622 1032.02 294.032 1030.2 292.414C1025.5 288.231 1021.41 281.604 1017.73 276.375L1001.62 253.842C998.161 248.995 995.161 244.481 991.095 240.063C985.419 233.889 977.022 235.283 968.831 235.301L968.793 264.388C968.79 269.266 968.657 274.351 968.907 279.225C969.087 282.768 970.021 284.562 973.583 285.441C978.699 286.703 983.923 287.743 989.109 288.829L989.093 293.612H930.813L930.794 288.887C934.55 287.905 947.516 285.771 948.787 282.823C950.091 279.798 949.616 265.48 949.607 261.329V230.972L949.61 198.592C949.61 193.671 950.04 177.56 948.848 173.967C946.228 170.756 935.293 168.965 930.794 167.904L930.791 163.195ZM968.85 229.131C982.664 229.123 997.066 231.147 1007.65 221.492C1018.09 210.111 1018.05 187.505 1006.41 176.937C996.183 167.647 981.582 169.262 968.815 169.351L968.85 229.131Z" fill="white"/>
<path d="M503.778 163.195H561.061L561.039 167.917C558.046 168.515 547.804 170.178 545.925 171.741C545.681 173.927 555.398 186.973 557.385 189.816L577.371 218.369C587.255 205.803 596.127 191.253 605.938 178.547C606.96 177.223 609.691 173.502 609.121 171.969C607.005 170.517 598.221 168.641 595.14 167.891L595.133 163.195H641.2L641.175 167.955C634.107 169.776 624.586 170.701 619.815 176.327C614.202 182.951 608.656 190.134 603.265 196.94L581.722 224.084L610.586 262.135C615.256 268.285 622.353 278.629 628.038 283.602C630.278 285.562 640.878 287.925 644.459 288.831L644.475 293.589H639.577L587.198 293.6L587.186 288.947C590.609 288.025 600.063 286.799 602.407 285.168C602.566 284.116 601.373 281.91 600.759 281.079C589.951 266.4 579.836 250.41 568.693 236.043C560.846 246.684 553.06 257.371 545.333 268.103C543.716 270.337 533.94 282.944 534.63 284.74C536.705 286.264 545.71 288.119 548.757 288.848L548.674 293.613L502.74 293.6L502.737 288.906C506.857 287.894 518.744 285.334 521.363 283.027C526.128 278.836 533.519 268.88 537.604 263.758L564.361 230.268C552.901 215.596 541.859 200.085 530.504 185.288C519.56 171.03 521.474 172.457 503.794 167.905L503.778 163.195Z" fill="white"/>
<path d="M662.196 163.211L760.819 163.195V195.812H755.371C752.957 188.648 751.096 181.368 748.458 174.234C746.293 168.376 740.485 169.466 735.321 169.293C732.822 169.208 730.224 169.301 727.712 169.307L700.208 169.385L700.227 225.498L721.346 225.569C740.409 225.606 738.333 225.656 743.405 207.769L748.818 207.724L748.859 247.554V251.195L743.392 251.217C738.76 231.847 741.298 231.557 721.378 231.575L700.227 231.615L700.201 263.336C700.195 287.646 697.189 283.92 720.514 288.837L720.621 293.577L662.203 293.6L662.199 288.916C665.072 288.138 679.769 285.494 680.307 282.811C681.607 276.325 681.098 267.625 681.088 260.88V230.819V197.08C681.088 192.792 681.528 177.988 680.294 174.003C679.478 171.362 665.968 168.789 662.199 167.856L662.196 163.211Z" fill="white"/>
<path d="M962.614 43.7632C963.883 43.636 965.269 43.7284 966.541 43.8268C992.273 45.803 998.515 80.4138 984.578 98.0343C979.589 104.346 973.182 106.939 965.38 107.762C958.682 108.2 952.069 106.09 946.867 101.854C930.263 88.1101 932.51 54.1798 953.597 45.7495C956.805 44.4659 959.197 44.0638 962.614 43.7632ZM966.202 101.347C971.575 100.422 975.991 98.3878 979.108 93.6656C989.011 78.6641 984.797 48.9599 962.051 50.0727C956.682 50.764 952.398 52.6785 949.066 57.1131C940.774 68.1507 941.72 89.2522 953.091 97.7853C956.859 100.573 961.539 101.845 966.202 101.347Z" fill="white"/>
<path d="M656.89 44.8397C665.474 44.9881 678.582 43.7048 686.109 47.1781C689.513 48.9344 692.563 52.5483 693.512 56.2649C696.382 67.5102 691.836 74.3098 681.433 77.5753C687.143 79.0987 689.431 85.9593 691.646 90.8267C694.025 96.0535 696.312 101.366 698.628 106.624L690.991 106.644L688.865 101.95C686.188 96.4313 683.176 87.4179 679.404 82.9593C676.234 79.2119 668.865 79.7134 664.132 79.7463L664.129 106.624L656.82 106.606L656.89 44.8397ZM664.132 73.8735C670.726 73.876 678.019 74.5588 683.413 70.3447C687.561 65.8899 688.602 58.5218 683.932 53.9515C679.673 49.7874 670.03 50.8015 664.132 50.8097V73.8735Z" fill="white"/>
<path d="M440.74 44.8799H448.337L478.154 95.4875L478.046 44.8799L484.886 44.9004L484.779 106.564C483.653 106.723 478.505 106.614 477.084 106.611L447.369 56.127L447.505 106.64L440.74 106.62V44.8799Z" fill="white"/>
<path d="M372.719 44.8799L380.053 44.8615C380.139 54.6779 380.158 64.495 380.11 74.3117C380.113 79.7625 379.955 85.1782 380.569 90.6081C382.173 104.77 406.82 105.225 409.028 91.1593C409.997 84.9887 409.715 78.7617 409.712 72.4975L409.728 44.8574L416.992 44.8799V50.7572L417.008 73.2363C417.008 84.6106 418.701 100.106 405.994 105.606C397.379 109.366 385.09 108.489 378.205 101.69C371.242 94.8105 372.707 81.9687 372.707 72.8325L372.719 44.8799Z" fill="white"/>
<path d="M602.797 44.8927L636.385 44.8643C636.468 46.862 636.427 49.0103 636.423 51.0206L610.118 50.9944L610.109 71.4412L634.898 71.4779C634.829 73.3693 634.889 75.423 634.908 77.3274C626.818 77.5894 618.237 77.453 610.109 77.4527V82.0799L610.08 100.272L637.195 100.297L637.189 106.624L602.794 106.61L602.797 44.8927Z" fill="white"/>
<path d="M578.852 44.8799H585.981L583.918 50.8391L564.301 106.625H555.784L534.443 44.8799H542.223L560.289 99.3972C562.096 93.4889 564.539 86.8279 566.545 80.9252L578.852 44.8799Z" fill="white"/>
<path d="M730.85 43.7593C738.244 43.2234 744.142 45.4021 749.805 49.9913L746.198 54.5018C739.908 50.2992 728.86 46.7559 722.836 53.6795C715.514 62.0937 726.066 68.2124 733.081 71.0178C740.282 74.0631 749.796 79.0599 750.321 87.9743C751.074 100.815 743.154 106.685 731.556 107.868C723.817 108.009 718.023 105.813 711.917 101.273L715.242 96.2527C721.345 99.9675 726.43 102.126 733.843 101.286C738.95 101.294 744.316 94.2439 743.101 89.3091C739.731 75.6476 715.245 77.7061 713.698 62.0535C712.6 50.9326 720.374 44.8762 730.85 43.7593Z" fill="white"/>
<path d="M847.738 44.8799L856.224 44.903L871.325 73.6773C876.407 64.1412 881.365 54.5412 886.199 44.8799H894.242L882.681 66.9005C881.036 70.1483 874.67 80.9037 874.613 84.0094C874.477 91.1637 874.597 99.3953 874.628 106.625L867.247 106.606C867.272 102.108 867.839 83.6557 866.462 80.9018C860.578 69.1086 853.791 56.6522 847.738 44.8799Z" fill="white"/>
<path d="M1012.13 44.8926H1044.98V50.9942H1019.47L1019.47 71.4411L1043.45 71.4604L1043.44 77.37L1039.58 77.4336L1019.48 77.4526V106.624H1012.13V44.8926Z" fill="white"/>
<path d="M794.93 44.8926H839.063V50.9942H820.735L820.732 88.0913L820.728 106.624L813.407 106.671L813.28 50.96C807.165 51.023 801.046 51.0287 794.93 50.9778V44.8926Z" fill="white"/>
<path d="M770.854 44.8926H778.309V106.624H770.854V44.8926Z" fill="white"/>
<path d="M510.66 44.8584L518.032 44.8938V106.625L510.657 106.647L510.66 44.8584Z" fill="white"/>
</svg>
